<?xml version="1.0" encoding="utf-8"?>
<!-- Generator: Adobe Illustrator 27.3.1, SVG Export Plug-In . SVG Version: 6.00 Build 0)  -->
<svg version="1.1" id="Слой_1" xmlns="http://www.w3.org/2000/svg" xmlns:xlink="http://www.w3.org/1999/xlink" x="0px" y="0px"
	 viewBox="0 0 91.8 88.9" style="enable-background:new 0 0 91.8 88.9;" xml:space="preserve">
<style type="text/css">
	.st0{fill:#EE721E;}
</style>
<path class="st0" d="M64.5,28.4c1.2,0.2,1.7,0.2,2.1-0.6c0.4-1.4-1-2.1-1.6-2.4c-6.2-2.4-12.6-3.7-19.1-3.8
	c-6.4,0.2-12.9,1.5-19.1,3.8c-0.7,0.3-2,1-1.6,2.4c0.3,0.8,0.8,0.8,2.1,0.6c6.6-1.3,12.3-2.3,18.5-2.3l0,0c0,0,0,0,0.1,0
	c0,0,0,0,0.1,0l0,0C52.1,26.1,57.8,27.1,64.5,28.4z"/>
<path class="st0" d="M45.9,0L45.9,0L45.9,0C33.2,0,22.4,4.5,13.5,13.5C4.5,22.4,0,33.2,0,45.8c0,12.7,4.5,23.4,13.5,32.3
	c5,5,10.5,8.6,16.6,10.8c0.4-0.7,0.6-1.9,0.9-3.8c2.2-13,4.3-25.9,6.5-38.9c0.1-0.3,0.2-0.6,0.3-1c-1.1-0.8-2.4-1.8-3.8-2.8
	c-9.1-7.3-9.8-11.9-11.1-14.7c-0.6-1.4-0.2-3.2,1-4.6c0.3-0.3,0.6-0.5,0.9-0.7c1.8-1.3,6.3-4.1,14.3-5.8c-0.7-3.4,0.9-5.2,4.2-5.9
	c0.3-0.1,0.7-0.9,0.7-1.3c0.1-1.5,0-2.9,0-4.4c0-1.2,0.5-2.3,1.9-2.3s1.8,1.1,1.9,2.3c0,1.5-0.1,2.9,0,4.4c0,0.5,0.4,1.3,0.7,1.3
	c3.4,0.6,4.9,2.5,4.2,5.9c8,1.8,12.5,4.5,14.3,5.8c0.4,0.3,0.8,0.7,1.3,1.2c0.9,1.3,1.1,2.9,0.6,4.1c-1.3,2.9-2,7.5-11.1,14.7
	c-1.4,1-2.7,1.9-3.8,2.8c0.1,0.3,0.2,0.6,0.3,1c2.2,12.9,4.3,25.9,6.5,38.9c0.3,1.9,0.5,3.1,0.9,3.8c6.1-2.2,11.6-5.8,16.6-10.8
	c9-8.9,13.5-19.7,13.5-32.3c0-12.7-4.5-23.4-13.5-32.3C69.4,4.5,58.6,0,45.9,0z"/>
</svg>
