<?xml version="1.0" encoding="utf-8"?>
<!-- Generator: Adobe Illustrator 27.3.1, SVG Export Plug-In . SVG Version: 6.00 Build 0)  -->
<svg version="1.1" id="Слой_1" xmlns="http://www.w3.org/2000/svg" xmlns:xlink="http://www.w3.org/1999/xlink" x="0px" y="0px"
	 viewBox="0 0 31.7 31.7" style="enable-background:new 0 0 31.7 31.7;" xml:space="preserve">
<style type="text/css">
	.st0{fill-rule:evenodd;clip-rule:evenodd;fill:#1E1E1C;}
</style>
<path class="st0" d="M13.7,24.7c3.7,3.2,5,3.4,6,3.5c1.5,0.2,3.6-0.3,4.5-1.4c0.9-1.1,1.2-2.2,1.2-2.5c-0.1-0.3-0.4-0.5-0.8-1
	c-0.5-0.5-2.7-2.6-3.1-3c-0.4-0.3-0.9-0.4-1.5,0c-0.8,0.6-1.5,1.1-2.1,1.4c-0.4,0.2-1,0.1-1.4-0.2c-0.5-0.4-2-1.6-3.5-4.1
	c-1.1-1.9-1.6-4.1-1.8-4.7c-0.1-0.7,0.2-0.9,0.6-1.1c0.4-0.2,0.7-0.4,1.1-0.6c0.4-0.2,0.6-0.3,0.9-0.7c0.3-0.3,0.3-0.7,0.3-1
	c0-0.3-0.3-3.3-0.3-4.5c-0.1-1-0.3-1.1-0.9-1.3c-0.2-0.1-0.4-0.2-0.6-0.2c-0.7-0.2-1.5-0.3-2.1,0C9.4,3.7,7.6,4.6,6.8,7.3
	s0.2,5.9,0.4,6.3C7.3,14,9,20.7,13.7,24.7z"/>
</svg>
