<?xml version="1.0" encoding="utf-8"?>
<!-- Generator: Adobe Illustrator 21.0.0, SVG Export Plug-In . SVG Version: 6.00 Build 0)  -->
<svg version="1.1" id="Слой_1" xmlns="http://www.w3.org/2000/svg" xmlns:xlink="http://www.w3.org/1999/xlink" x="0px" y="0px"
	 viewBox="0 0 750 500" style="enable-background:new 0 0 750 500;" xml:space="preserve">
<style type="text/css">
	.st0{fill:#012169;}
	.st1{fill:#FFFFFF;}
	.st2{fill:#C8102E;}
</style>
<path class="st0" d="M0.9,0.1H750V500H0.9V0.1z"/>
<path class="st1" d="M88.7,0.1l285.6,188.5L658.7,0.1H750v64.6L469.1,251.1L750,436.5V500h-93.6L375.5,313.6L95.7,500H0.9v-62.5
	l279.7-185.4L0.9,66.8V0.1H88.7z"/>
<path class="st2" d="M497.2,292.8L750,458.3V500L432.8,292.8H497.2z M281.8,313.6l7,36.4L64.1,500H0.9L281.8,313.6z M750,0.1v3.1
	L458.6,199l2.3-45.8L691.5,0.1H750z M0.9,0.1l279.7,183.3h-70.2L0.9,43.9V0.1z"/>
<path class="st1" d="M283,0.1V500h187.3V0.1H283z M0.9,166.8v166.6H750V166.8H0.9z"/>
<path class="st2" d="M0.9,201.1v100H750v-100H0.9z M320.4,0.1V500h112.4V0.1H320.4z"/>
</svg>
