<?xml version="1.0" encoding="utf-8"?>
<!-- Generator: Adobe Illustrator 27.3.1, SVG Export Plug-In . SVG Version: 6.00 Build 0)  -->
<svg version="1.1" id="Слой_1" xmlns="http://www.w3.org/2000/svg" xmlns:xlink="http://www.w3.org/1999/xlink" x="0px" y="0px"
	 viewBox="0 0 799.9 800" style="enable-background:new 0 0 799.9 800;" xml:space="preserve">
<style type="text/css">
	.st0{fill:#FFF37C;}
	.st1{fill:#FF6700;}
</style>
<circle class="st0" cx="414.5" cy="415.9" r="261.9"/>
<path class="st1" d="M300,324.8c-14,0-27.1,7.5-34.1,19.7c-5.3,9.1-17,12.3-26.1,7c-9.1-5.3-12.3-17-7-26.1
	c13.8-23.9,39.6-38.8,67.2-38.8c27.6,0,53.3,14.9,67.2,38.8c5.3,9.1,2.2,20.8-7,26.1c-3,1.7-6.3,2.6-9.5,2.6c-6.6,0-13-3.4-16.5-9.5
	C327.1,332.3,314,324.8,300,324.8z M400.5,527.3c-14,0-27.1-7.5-34.1-19.7c-5.3-9.1-17-12.3-26.1-7c-9.1,5.3-12.3,17-7,26.1
	c13.8,23.9,39.6,38.8,67.2,38.8c27.6,0,53.3-14.9,67.2-38.8c5.3-9.1,2.2-20.8-7-26.1c-9.1-5.3-20.8-2.2-26.1,7
	C427.5,519.7,414.5,527.3,400.5,527.3z M800,341.1v87.1c0,32.5-25.6,59.8-58,59.8h-35.3c-11.6,36.1-30,71-54.7,102.2
	c-40.7,51.3-96.7,88.6-158.9,107.3c-2.8,31.4-29.3,55.7-61.4,55.7h-62.3c-34,0-61.6-27.5-61.6-61.5c0-34,27.7-61.5,61.6-61.5h62.3
	c22.4,0,42,12.3,52.8,30.2C602.1,624,683,515.7,683,391c0-121.4-76.9-225.1-184.6-265c-28,34.4-63.2,63-102.5,83.2
	c-45,23.1-95.6,35.4-146.5,35.4c-5.9,0-11.9-0.2-17.9-0.5c-10.5-0.6-18.6-9.6-18-20.1s9.5-18.7,20.1-18c5.3,0.3,10.6,0.4,15.8,0.4
	c80.6,0,155.2-33.2,208.7-92c-17.9-3.7-36.4-5.8-55.3-5.9c-0.1,0-0.3,0-0.4,0c-0.1,0-0.1,0-0.2,0c-0.1,0-0.3-0.1-0.5-0.1
	c-0.1,0-0.1,0-0.2,0c-0.1,0-0.3,0-0.5,0c-0.1,0-0.1,0-0.2,0c-0.1,0-0.2,0-0.3,0c-155.8,0-281.7,126.9-281.7,282.7V468
	c0,10.5-9.4,20-19.9,20H59.1C26.6,488.1,0,460.7,0,428.2v-87.1c0-25.7,16.5-48.2,41-56.1c10-3.2,20.9,2.3,24.1,12.3
	c3.2,10-2.3,20.8-12.4,24c-8.5,2.7-14.5,10.8-14.5,19.7v87.1c0,11.4,9.5,21.7,20.9,21.7h21.5v-58.9C80.6,214.1,223.6,70,400.5,70
	c0.1,0,0.2,0,0.3,0c0.1,0,0.2,0,0.2,0c0.1,0,0.2,0,0.2,0h0c0.1,0,0.2,0,0.3,0c0.1,0,0.2,0,0.2,0c0.1,0,0.2,0,0.2,0h0
	c0.1,0,0.2,0,0.3,0c0.1,0,0.2,0,0.2,0c0.1,0,0.2,0,0.3,0c0.1,0,0.2,0,0.3,0c0.1,0,0.2,0,0.2,0c0.1,0,0.2,0,0.3,0c0.1,0,0.2,0,0.3,0
	c0.1,0,0.2,0,0.2,0c0.1,0,0.2,0,0.3,0c0.1,0,0.2,0,0.2,0s0.2,0,0.2,0c0.1,0,0.2,0,0.3,0c0.1,0,0.2,0,0.2,0c0.1,0,0.2,0.1,0.2,0.1
	c0.1,0,0.2,0.1,0.3,0.1c0.1,0,0.2,0,0.2,0c0.1,0,0.2,0,0.2,0c0.1,0,0.2,0,0.3,0c0.1,0,0.2,0,0.2,0c0.1,0,0.2,0,0.2,0
	c0.1,0,0.2,0,0.3,0c0.1,0,0.2,0,0.2,0c0.1,0,0.2,0,0.2,0c0.1,0,0.2,0,0.3,0c0.1,0,0.2,0,0.2,0c0.1,0,0.2,0,0.2,0c0.1,0,0.2,0,0.3,0
	c0.1,0,0.1,0,0.2,0c0.1,0,0.2,0,0.2,0c0.1,0,0.2,0,0.3,0c0.1,0,0.2,0,0.3,0c0.1,0,0.1,0,0.2,0c0.1,0,0.2,0,0.2,0c0.1,0,0.2,0,0.3,0
	c0.1,0,0.1-0.1,0.2-0.1c0.2,0,0.3-0.2,0.5-0.2h0c0.1,0,0.2,0,0.2,0h0c29.2,2.1,58,6.3,85.7,15.1c0.4,0.1,0.8,0.6,1.1,0.7
	c129,41.6,222.5,163,222.5,305.6c0,19.7-1.7,39.4-5.2,58.5h25.9c11.4,0,19.8-10.2,19.8-21.7v-87.1c0-8.9-5.6-17-14.1-19.7
	c-10-3.2-15.2-14-12-24c3.2-10,13.8-15.6,23.8-12.3C783.9,292.9,800,315.5,800,341.1z M455.1,692c0-1.6-0.2-2.8-0.5-4.3
	c0-0.2-0.1-0.5-0.1-0.7c-2.4-10.5-11.7-18.6-22.9-18.6h-62.3c-12.9,0-23.4,10.4-23.4,23.3c0,12.9,10.5,23.3,23.4,23.3h62.3
	C444.5,715.1,455.1,705,455.1,692z M440.8,351.4c9.1,5.3,20.8,2.2,26.1-7c7-12.1,20.1-19.7,34.1-19.7s27.1,7.5,34.1,19.7
	c3.5,6.1,10,9.5,16.5,9.5c3.2,0,6.5-0.8,9.5-2.6c9.1-5.3,12.3-17,7-26.1c-13.8-23.9-39.6-38.8-67.2-38.8s-53.3,14.9-67.2,38.8
	C428.5,334.5,431.6,346.1,440.8,351.4z"/>
</svg>
