<?xml version="1.0" encoding="utf-8"?>
<!-- Generator: Adobe Illustrator 27.3.1, SVG Export Plug-In . SVG Version: 6.00 Build 0)  -->
<svg version="1.1" id="Слой_1" xmlns="http://www.w3.org/2000/svg" xmlns:xlink="http://www.w3.org/1999/xlink" x="0px" y="0px"
	 viewBox="0 0 31.7 31.7" style="enable-background:new 0 0 31.7 31.7;" xml:space="preserve">
<style type="text/css">
	.st0{fill:#1E1E1C;}
</style>
<g>
	<path class="st0" d="M13.1,24.8c-5.6-0.9-9.4-6.2-8.5-11.8s6.2-9.4,11.8-8.5s9.4,6.2,8.5,11.8C23.9,22,18.6,25.8,13.1,24.8z
		 M16.2,5.6c-5-0.8-9.8,2.6-10.6,7.7s2.6,9.8,7.7,10.6s9.8-2.6,10.6-7.7C24.7,11.2,21.3,6.4,16.2,5.6z"/>
	<path class="st0" d="M11.3,21c-0.8-0.1-1.5-0.3-2.2-0.6c1.1,1.2,2.7,2,4.4,2.3c4.4,0.7,8.5-2.2,9.2-6.6c0.1-0.7,0.1-1.3,0.1-2
		C21.1,18.8,16.3,21.8,11.3,21z"/>
	<path class="st0" d="M27.4,25.1L23,20.7c-0.6,0.9-1.4,1.6-2.3,2.3l4.4,4.4c0.6,0.6,1.6,0.6,2.3,0C28,26.8,28,25.7,27.4,25.1z"/>
</g>
</svg>
