<?xml version="1.0" encoding="utf-8"?>
<!-- Generator: Adobe Illustrator 27.3.1, SVG Export Plug-In . SVG Version: 6.00 Build 0)  -->
<svg version="1.1" id="Слой_1" xmlns="http://www.w3.org/2000/svg" xmlns:xlink="http://www.w3.org/1999/xlink" x="0px" y="0px"
	 viewBox="0 0 32.4 26.7" style="enable-background:new 0 0 32.4 26.7;" xml:space="preserve">
<style type="text/css">
	.st0{fill:#5E6E82;}
</style>
<path class="st0" d="M3.5,26.2L3.5,26.2c-1.7,0-3-1.4-3-3v-0.3c0-1.7,1.4-3,3-3l0,0c1.7,0,3,1.4,3,3v0.3C6.6,24.8,5.2,26.2,3.5,26.2
	z"/>
<path class="st0" d="M12.1,26.2L12.1,26.2c-1.7,0-3-1.4-3-3v-6.8c0-1.7,1.4-3,3-3l0,0c1.7,0,3,1.4,3,3v6.8
	C15.1,24.8,13.8,26.2,12.1,26.2z"/>
<path class="st0" d="M20.5,26.2L20.5,26.2c-1.7,0-3-1.4-3-3V10c0-1.7,1.4-3,3-3l0,0c1.7,0,3,1.4,3,3v13.2
	C23.5,24.8,22.1,26.2,20.5,26.2z"/>
<path class="st0" d="M28.8,26.2L28.8,26.2c-1.7,0-3-1.4-3-3V3.5c0-1.7,1.4-3,3-3l0,0c1.7,0,3,1.4,3,3v19.6
	C31.9,24.8,30.5,26.2,28.8,26.2z"/>
<path class="st0" d="M3.5,26.7c-2,0-3.5-1.6-3.5-3.5v-0.3c0-2,1.6-3.5,3.5-3.5S7,21,7,22.9v0.3C7.1,25.1,5.5,26.7,3.5,26.7z
	 M3.5,20.3c-1.4,0-2.5,1.1-2.5,2.5v0.3c0,1.4,1.1,2.5,2.5,2.5S6,24.5,6,23.1v-0.3C6.1,21.4,4.9,20.3,3.5,20.3z"/>
<path class="st0" d="M12.1,26.7c-2,0-3.5-1.6-3.5-3.5v-6.8c0-2,1.6-3.5,3.5-3.5s3.5,1.6,3.5,3.5v6.8C15.6,25.1,14.1,26.7,12.1,26.7z
	 M12.1,13.8c-1.4,0-2.5,1.1-2.5,2.5v6.8c0,1.4,1.1,2.5,2.5,2.5s2.5-1.1,2.5-2.5v-6.8C14.6,15,13.5,13.8,12.1,13.8z"/>
<path class="st0" d="M20.5,26.7c-2,0-3.5-1.6-3.5-3.5V10c0-2,1.6-3.5,3.5-3.5S24,8,24,10v13.2C24,25.1,22.4,26.7,20.5,26.7z
	 M20.5,7.4c-1.4,0-2.5,1.1-2.5,2.5v13.2c0,1.4,1.1,2.5,2.5,2.5s2.5-1.1,2.5-2.5V10C23,8.6,21.9,7.4,20.5,7.4z"/>
<path class="st0" d="M28.8,26.7c-2,0-3.5-1.6-3.5-3.5V3.5c0-2,1.6-3.5,3.5-3.5c2,0,3.5,1.6,3.5,3.5v19.6
	C32.4,25.1,30.8,26.7,28.8,26.7z M28.8,1c-1.4,0-2.5,1.1-2.5,2.5v19.6c0,1.4,1.1,2.5,2.5,2.5s2.5-1.1,2.5-2.5V3.5
	C31.4,2.1,30.2,1,28.8,1z"/>
</svg>
