<?xml version="1.0" encoding="utf-8"?>
<!-- Generator: Adobe Illustrator 27.3.1, SVG Export Plug-In . SVG Version: 6.00 Build 0)  -->
<svg version="1.1" id="Слой_1" xmlns="http://www.w3.org/2000/svg" xmlns:xlink="http://www.w3.org/1999/xlink" x="0px" y="0px"
	 viewBox="0 0 31.7 31.7" style="enable-background:new 0 0 31.7 31.7;" xml:space="preserve">
<style type="text/css">
	.st0{fill:#1E1E1C;}
</style>
<g>
	<path class="st0" d="M12.8,17.9h-2c-0.5,0-0.9,0.4-0.9,1v1.9v2.1v1.9c0,0.5,0.4,1,0.9,1h2c0.5,0,0.9-0.4,0.9-1v-1.9v-2.1v-1.9
		C13.7,18.3,13.3,17.9,12.8,17.9z"/>
	<path class="st0" d="M17.2,17.9h-2c-0.5,0-0.9,0.4-0.9,1v1.9v2.1v1.9c0,0.5,0.4,1,0.9,1h2c0.5,0,0.9-0.4,0.9-1v-1.9v-2.1v-1.9
		C18.1,18.3,17.7,17.9,17.2,17.9z"/>
	<path class="st0" d="M21.6,17.9h-2c-0.5,0-0.9,0.4-0.9,1v1.9v2.1v1.9c0,0.5,0.4,1,0.9,1h2c0.5,0,0.9-0.4,0.9-1v-1.9v-2.1v-1.9
		C22.5,18.3,22.1,17.9,21.6,17.9z"/>
	<path class="st0" d="M12.8,9.4h-2c-0.5,0-0.9,0.4-0.9,1v1.9v2.1v1.9c0,0.5,0.4,1,0.9,1h2c0.5,0,0.9-0.4,0.9-1v-1.9v-2.1v-1.9
		C13.7,9.8,13.3,9.4,12.8,9.4z"/>
	<path class="st0" d="M17.2,9.4h-2c-0.5,0-0.9,0.4-0.9,1v1.9v2.1v1.9c0,0.5,0.4,1,0.9,1h2c0.5,0,0.9-0.4,0.9-1v-1.9v-2.1v-1.9
		C18.1,9.8,17.7,9.4,17.2,9.4z"/>
	<path class="st0" d="M21.6,9.4h-2c-0.5,0-0.9,0.4-0.9,1v1.9v2.1v1.9c0,0.5,0.4,1,0.9,1h2c0.5,0,0.9-0.4,0.9-1v-1.9v-2.1v-1.9
		C22.5,9.8,22.1,9.4,21.6,9.4z"/>
	<path class="st0" d="M22.3,29H10.3c-1.6,0-2.9-1.3-2.9-2.9V5.7c0-1.6,1.3-2.9,2.9-2.9h8.3c0.8,0,1.5,0.3,2.1,0.9l3.6,3.6
		c0.6,0.6,0.9,1.3,0.9,2.1V26C25.2,27.7,23.9,29,22.3,29z M10.3,3.7c-1.1,0-2,0.9-2,2V26c0,1.1,0.9,2,2,2h11.9c1.1,0,2-0.9,2-2V9.3
		c0-0.5-0.2-1-0.6-1.4L20,4.3c-0.4-0.4-0.9-0.6-1.4-0.6H10.3z"/>
</g>
</svg>
