<?xml version="1.0" encoding="utf-8"?>
<!-- Generator: Adobe Illustrator 27.3.1, SVG Export Plug-In . SVG Version: 6.00 Build 0)  -->
<svg version="1.1" id="Слой_1" xmlns="http://www.w3.org/2000/svg" xmlns:xlink="http://www.w3.org/1999/xlink" x="0px" y="0px"
	 viewBox="0 0 31.7 31.7" style="enable-background:new 0 0 31.7 31.7;" xml:space="preserve">
<style type="text/css">
	.st0{fill:#1E1E1C;}
</style>
<g>
	<path class="st0" d="M24,30.3l-6.6-7.5H9c-3.7,0-6.8-3-6.8-6.8V11c0-3.7,3-6.8,6.8-6.8h13.7c3.7,0,6.8,3,6.8,6.8v5.1
		c0,3.2-2.3,6-5.5,6.6V30.3z M9,5.2c-3.2,0-5.8,2.6-5.8,5.8v5.1c0,3.2,2.6,5.8,5.8,5.8h8.9l5.1,5.8v-5.8l0.4-0.1
		c2.9-0.4,5.1-2.8,5.1-5.7V11c0-3.2-2.6-5.8-5.8-5.8H9z"/>
	<g>
		<path class="st0" d="M8.7,15.8c0.4,0,0.8-0.1,1.1-0.2c0.3-0.1,0.4-0.3,0.4-0.5v0v0c0,0,0-0.1,0-0.1c0-0.1-0.1-0.1-0.2-0.2
			c-0.2-0.2-0.7-0.3-1.4-0.4C6.9,14.2,6,13.5,6,12.3c0-0.6,0.2-1.1,0.6-1.5c0.5-0.5,1.1-0.7,2-0.7c1,0,1.8,0.3,2.4,0.8
			c0.1,0.1,0.2,0.3,0.2,0.5c0,0.2,0,0.4-0.2,0.5c-0.1,0.2-0.3,0.2-0.5,0.2c-0.2,0-0.3,0-0.5-0.2c-0.1-0.1-0.3-0.2-0.6-0.3
			c-0.3-0.1-0.6-0.2-1-0.2c-0.4,0-0.7,0.1-1,0.2c-0.2,0.1-0.4,0.3-0.4,0.5v0v0c0,0,0,0.1,0,0.1c0,0.1,0.1,0.1,0.2,0.2
			c0.2,0.2,0.6,0.3,1.2,0.4l0.1,0l0.1,0l0.2,0c0.1,0,0.3,0,0.4,0.1c0.4,0.1,0.7,0.2,0.9,0.3c0.7,0.4,1.1,0.9,1.1,1.7
			c0,0.6-0.2,1.1-0.6,1.4c-0.5,0.5-1.2,0.7-2.2,0.7c-1.1,0-2-0.3-2.6-0.8c-0.1-0.1-0.2-0.3-0.2-0.5c0-0.2,0-0.4,0.2-0.5
			c0.1-0.2,0.3-0.2,0.5-0.3c0.2,0,0.3,0,0.5,0.2c0.2,0.1,0.4,0.2,0.6,0.3C7.9,15.8,8.2,15.8,8.7,15.8z"/>
		<path class="st0" d="M18.8,17.3c-0.2,0-0.3-0.1-0.5-0.2c-0.1-0.1-0.2-0.3-0.2-0.5v-3.7l-1.7,2.3c-0.1,0.2-0.3,0.3-0.5,0.3
			c-0.2,0-0.4-0.1-0.5-0.3l-1.7-2.3v3.7c0,0.2-0.1,0.4-0.2,0.5c-0.1,0.1-0.3,0.2-0.5,0.2c-0.2,0-0.3-0.1-0.5-0.2
			c-0.1-0.1-0.2-0.3-0.2-0.5v-5.7c0-0.3,0.1-0.6,0.4-0.7c0.3-0.1,0.5,0,0.7,0.2l2.3,3.2l2.3-3.2c0.2-0.3,0.4-0.3,0.7-0.2
			c0.3,0.1,0.4,0.3,0.4,0.7v5.7c0,0.2-0.1,0.4-0.2,0.5C19.1,17.2,19,17.3,18.8,17.3z"/>
		<path class="st0" d="M23.3,15.8c0.4,0,0.8-0.1,1.1-0.2c0.3-0.1,0.4-0.3,0.4-0.5v0v0c0,0,0-0.1,0-0.1c0-0.1-0.1-0.1-0.2-0.2
			c-0.2-0.2-0.7-0.3-1.4-0.4c-1.7-0.2-2.6-0.9-2.6-2.2c0-0.6,0.2-1.1,0.6-1.5c0.5-0.5,1.1-0.7,2-0.7c1,0,1.8,0.3,2.4,0.8
			c0.1,0.1,0.2,0.3,0.2,0.5c0,0.2,0,0.4-0.2,0.5c-0.1,0.2-0.3,0.2-0.5,0.2c-0.2,0-0.3,0-0.5-0.2c-0.1-0.1-0.3-0.2-0.6-0.3
			c-0.3-0.1-0.6-0.2-1-0.2c-0.4,0-0.7,0.1-1,0.2c-0.2,0.1-0.4,0.3-0.4,0.5v0v0c0,0,0,0.1,0,0.1c0,0.1,0.1,0.1,0.2,0.2
			c0.2,0.2,0.6,0.3,1.2,0.4l0.1,0l0.1,0l0.2,0c0.1,0,0.3,0,0.4,0.1c0.4,0.1,0.7,0.2,0.9,0.3c0.7,0.4,1.1,0.9,1.1,1.7
			c0,0.6-0.2,1.1-0.6,1.4c-0.5,0.5-1.2,0.7-2.2,0.7c-1.1,0-2-0.3-2.6-0.8c-0.1-0.1-0.2-0.3-0.2-0.5c0-0.2,0-0.4,0.2-0.5
			c0.1-0.2,0.3-0.2,0.5-0.3c0.2,0,0.3,0,0.5,0.2c0.2,0.1,0.4,0.2,0.6,0.3C22.5,15.8,22.9,15.8,23.3,15.8z"/>
	</g>
</g>
</svg>
