<?xml version="1.0" encoding="utf-8"?>
<!-- Generator: Adobe Illustrator 27.3.1, SVG Export Plug-In . SVG Version: 6.00 Build 0)  -->
<svg version="1.1" id="Слой_1" xmlns="http://www.w3.org/2000/svg" xmlns:xlink="http://www.w3.org/1999/xlink" x="0px" y="0px"
	 viewBox="0 0 31.7 31.7" style="enable-background:new 0 0 31.7 31.7;" xml:space="preserve">
<style type="text/css">
	.st0{fill-rule:evenodd;clip-rule:evenodd;fill:#990F3E;}
</style>
<g>
	<path class="st0" d="M21.6,29.8H10.2c-1.5,0-2.7-1.2-2.7-2.7V10.8h16.8V27C24.3,28.5,23.1,29.8,21.6,29.8z"/>
	<path class="st0" d="M25.2,9.5H6.6C5.8,9.5,5.1,8.8,5.1,8V7.8c0-0.8,0.7-1.5,1.5-1.5h18.6c0.8,0,1.5,0.7,1.5,1.5V8
		C26.7,8.8,26,9.5,25.2,9.5z"/>
	<path class="st0" d="M21.5,5.5H10.2V5.2c0-0.9,0.7-1.6,1.6-1.6H20c0.9,0,1.6,0.7,1.6,1.6v0.3H21.5z"/>
</g>
</svg>
