<?xml version="1.0" encoding="utf-8"?>
<!-- Generator: Adobe Illustrator 27.3.1, SVG Export Plug-In . SVG Version: 6.00 Build 0)  -->
<svg version="1.1" id="Слой_1" xmlns="http://www.w3.org/2000/svg" xmlns:xlink="http://www.w3.org/1999/xlink" x="0px" y="0px"
	 viewBox="0 0 31.7 31.7" style="enable-background:new 0 0 31.7 31.7;" xml:space="preserve">
<style type="text/css">
	.st0{fill:#7FB0F7;}
	.st1{fill:#FFFFFF;}
</style>
<circle class="st0" cx="15.7" cy="16.2" r="14.3"/>
<g>
	<path class="st1" d="M11.8,11.2l-1.7-1.8c0.6-0.8,1.4-1.5,2.5-2c1.1-0.5,2.3-0.8,3.6-0.8l0,2.4c-0.8,0-1.6,0.2-2.3,0.6
		C13,10,12.4,10.6,11.8,11.2z M15.7,25.2c-0.5,0-1-0.2-1.3-0.6c-0.4-0.4-0.6-0.8-0.6-1.3c0-0.5,0.2-1,0.6-1.3s0.8-0.5,1.3-0.5
		c0.5,0,1,0.2,1.3,0.5c0.4,0.4,0.5,0.8,0.5,1.3c0,0.5-0.2,1-0.5,1.3C16.7,25,16.3,25.2,15.7,25.2z M14.4,19.1v-1.2
		c0-0.8,0.2-1.6,0.5-2.2c0.3-0.6,0.9-1.2,1.6-1.6c0.7-0.4,1.2-0.9,1.5-1.4c0.3-0.5,0.5-1,0.5-1.6c0-0.6-0.2-1.1-0.6-1.5
		c-0.4-0.4-1-0.5-1.8-0.5l0-2.4c1.6,0,2.9,0.4,3.8,1.1s1.4,1.8,1.4,3.2c0,0.9-0.2,1.8-0.7,2.6c-0.5,0.8-1.2,1.5-2.1,2.1
		c-0.5,0.4-0.9,0.7-1.2,1.2s-0.4,0.9-0.4,1.4v1H14.4z"/>
</g>
</svg>
