<?xml version="1.0" encoding="utf-8"?>
<!-- Generator: Adobe Illustrator 27.3.1, SVG Export Plug-In . SVG Version: 6.00 Build 0)  -->
<svg version="1.1" id="Слой_1" xmlns="http://www.w3.org/2000/svg" xmlns:xlink="http://www.w3.org/1999/xlink" x="0px" y="0px"
	 viewBox="0 0 31.7 31.7" style="enable-background:new 0 0 31.7 31.7;" xml:space="preserve">
<style type="text/css">
	.st0{fill:#FFFFFF;}
</style>
<g>
	<path class="st0" d="M24.3,26.5v-1.3c0-4.7-3.8-8.4-8.4-8.4s-8.4,3.8-8.4,8.4v1.3H24.3z"/>
	<path class="st0" d="M15.9,6.5c-2.7,0-4.8,2.2-4.8,4.8c0,2.7,2.2,4.8,4.8,4.8c2.7,0,4.8-2.2,4.8-4.8C20.7,8.7,18.5,6.5,15.9,6.5z
		 M14,11.6c-0.3,0-0.6-0.2-0.6-0.6s0.2-0.6,0.6-0.6s0.6,0.2,0.6,0.6S14.3,11.6,14,11.6z M15.9,11.6c-0.3,0-0.6-0.2-0.6-0.6
		s0.2-0.6,0.6-0.6s0.6,0.2,0.6,0.6S16.2,11.6,15.9,11.6z"/>
</g>
</svg>
