<?xml version="1.0" encoding="utf-8"?>
<!-- Generator: Adobe Illustrator 27.3.1, SVG Export Plug-In . SVG Version: 6.00 Build 0)  -->
<svg version="1.1" id="Слой_1" xmlns="http://www.w3.org/2000/svg" xmlns:xlink="http://www.w3.org/1999/xlink" x="0px" y="0px"
	 viewBox="0 0 482.1 138.9" style="enable-background:new 0 0 482.1 138.9;" xml:space="preserve">
<style type="text/css">
	.st0{fill:#FFFFFF;}
</style>
<path class="st0" d="M76.3,52.5c-1.8-1.7-3.9-2.5-6.4-2.5h-61c-2.5,0-4.6,0.8-6.4,2.5C0.8,54.2,0,56.4,0,58.8c0,2.5,0.8,4.6,2.5,6.4
	c1.8,1.7,3.9,2.5,6.4,2.5h21.6V130c0,2.5,0.9,4.5,2.7,6.2c1.7,1.8,3.8,2.7,6.2,2.7c2.5,0,4.6-0.9,6.4-2.7c1.7-1.7,2.5-3.8,2.5-6.2
	V67.7h21.6c2.5,0,4.6-0.8,6.4-2.5c1.7-1.8,2.5-3.9,2.5-6.4C78.8,56.4,78,54.2,76.3,52.5z"/>
<path class="st0" d="M295.9,50.8c-2.2-1.1-4.5-1.2-6.9-0.4c-2.3,0.8-4,2.2-5.1,4.5l-27.6,55.2l-9.2-18.2l14.5-29.1
	c1.1-2.2,1.3-4.5,0.5-6.7c-0.8-2.4-2.2-4.1-4.5-5.2c-2.2-1.1-4.5-1.2-6.9-0.4c-2.3,0.8-4,2.2-5.1,4.5l-8.5,17l-8.6-17
	c-1.1-2.2-2.8-3.7-5.1-4.5c-2.4-0.8-4.7-0.7-6.9,0.4c-2.2,1.1-3.7,2.8-4.5,5.2c-0.8,2.3-0.6,4.5,0.5,6.7l14.5,29.1l-9,18.2
	l-27.7-55.2c-1.1-2.2-2.8-3.7-5.1-4.5c-2.4-0.8-4.7-0.7-6.9,0.4c-2.2,1.1-3.7,2.8-4.5,5.2c-0.8,2.3-0.6,4.5,0.5,6.7l35.6,71.2
	c1.6,3.3,4.3,5,8,5c3.6,0,6.3-1.7,7.9-5l11.2-22.3l11.1,22.3c1.6,3.3,4.3,5,8,5c3.6,0,6.3-1.7,7.9-5l35.6-71.2
	c1.1-2.2,1.3-4.5,0.5-6.7C299.6,53.7,298.1,51.9,295.9,50.8z"/>
<path class="st0" d="M381.6,67.7c2.5,0,4.6-0.8,6.4-2.5c1.7-1.8,2.5-3.9,2.5-6.4c0-2.5-0.8-4.6-2.5-6.4c-1.8-1.7-3.9-2.5-6.4-2.5
	h-61c-2.5,0-4.6,0.8-6.4,2.5c-1.7,1.8-2.5,3.9-2.5,6.4V130c0,2.5,0.8,4.6,2.5,6.4c1.8,1.7,3.9,2.5,6.4,2.5h61c2.5,0,4.6-0.8,6.4-2.5
	c1.7-1.8,2.5-3.9,2.5-6.4c0-2.5-0.8-4.6-2.5-6.4c-1.8-1.7-3.9-2.5-6.4-2.5h-52.1v-17.8h47c2.5,0,4.5-0.8,6.2-2.5
	c1.8-1.8,2.7-3.9,2.7-6.4c0-2.5-0.9-4.6-2.7-6.4c-1.7-1.7-3.8-2.5-6.2-2.5h-47V67.7H381.6z"/>
<path class="st0" d="M477.7,97.7c2.9-4.9,4.3-10.3,4.3-16c0-8.7-3.1-16.2-9.3-22.5c-6.3-6.2-13.8-9.3-22.5-9.3h-38.1
	c-2.5,0-4.6,0.8-6.4,2.5c-1.7,1.8-2.5,3.9-2.5,6.4V130c0,2.5,0.8,4.5,2.5,6.2c1.8,1.8,3.9,2.7,6.4,2.7c2.5,0,4.6-0.9,6.4-2.7
	c1.7-1.7,2.5-3.8,2.5-6.2v-16.5h25.3l20.2,22.5c1.8,2,4,2.9,6.6,2.9c2.3,0,4.3-0.8,6-2.3c1.8-1.6,2.8-3.6,2.9-6.1
	c0.1-2.5-0.7-4.6-2.3-6.5l-13.5-15C471,106.3,474.9,102.5,477.7,97.7z M460.2,91.6c-2.8,2.7-6.1,4.1-9.9,4.1H421v-28h29.2
	c3.8,0,7.1,1.4,9.9,4.1c2.7,2.7,4.1,6,4.1,9.9C464.3,85.5,462.9,88.8,460.2,91.6z"/>
<path class="st0" d="M141.9,78.3c1.2,0.2,1.7,0.2,2.1-0.6c0.4-1.4-1-2.1-1.6-2.4c-6.2-2.4-12.6-3.7-19.1-3.8
	c-6.4,0.2-12.9,1.5-19.1,3.8c-0.7,0.3-2,1-1.6,2.4c0.3,0.8,0.8,0.8,2.1,0.6C111.3,77,117,76,123.2,76v0c0,0,0,0,0.1,0c0,0,0,0,0.1,0
	v0C129.5,76,135.2,77,141.9,78.3z"/>
<path class="st0" d="M123.3,49.9C123.3,49.9,123.3,49.9,123.3,49.9C123.3,49.9,123.3,49.9,123.3,49.9c-12.7,0-23.5,4.5-32.4,13.5
	c-9,8.9-13.5,19.7-13.5,32.3c0,12.7,4.5,23.4,13.5,32.3c5,5,10.5,8.6,16.6,10.8c0.4-0.7,0.6-1.9,0.9-3.8c2.2-13,4.3-25.9,6.5-38.9
	c0.1-0.3,0.2-0.6,0.3-1c-1.1-0.8-2.4-1.8-3.8-2.8c-9.1-7.3-9.8-11.9-11.1-14.7c-0.6-1.4-0.2-3.2,1-4.6c0.3-0.3,0.6-0.5,0.9-0.7
	c1.8-1.3,6.3-4.1,14.3-5.8c-0.7-3.4,0.9-5.2,4.2-5.9c0.3-0.1,0.7-0.9,0.7-1.3c0.1-1.5,0-2.9,0-4.4c0-1.2,0.5-2.3,1.9-2.3
	c1.4,0,1.8,1.1,1.9,2.3c0,1.5-0.1,2.9,0,4.4c0,0.5,0.4,1.3,0.7,1.3c3.4,0.6,4.9,2.5,4.2,5.9c8,1.8,12.5,4.5,14.3,5.8
	c0.4,0.3,0.8,0.7,1.3,1.2c0.9,1.3,1.1,2.9,0.6,4.1c-1.3,2.9-2,7.5-11.1,14.7c-1.4,1-2.7,1.9-3.8,2.8c0.1,0.3,0.2,0.6,0.3,1
	c2.2,12.9,4.3,25.9,6.5,38.9c0.3,1.9,0.5,3.1,0.9,3.8c6.1-2.2,11.6-5.8,16.6-10.8c9-8.9,13.5-19.7,13.5-32.3
	c0-12.7-4.5-23.4-13.5-32.3C146.8,54.4,136,49.9,123.3,49.9z"/>
<path class="st0" d="M110.3,37.1c-1.3,1.2-1.4,3.2-0.2,4.5c1.2,1.3,3.2,1.4,4.5,0.2c2.3-2.1,5.3-3.3,8.6-3.3s6.4,1.3,8.6,3.3
	c1.3,1.2,3.3,1.1,4.5-0.2c1.2-1.3,1.1-3.3-0.2-4.5c-3.4-3.1-8-5-13-5C118.3,32.1,113.7,34,110.3,37.1z"/>
<path class="st0" d="M93.3,17.9c8-7.1,18.5-11.4,30-11.4s22,4.3,30,11.4c1.3,1.2,3.4,1.1,4.5-0.3c1.2-1.3,1.1-3.4-0.3-4.5
	C148.4,4.9,136.4,0,123.3,0C110.1,0,98.1,4.9,89,13.1c-1.3,1.2-1.4,3.2-0.3,4.5C89.9,18.9,92,19,93.3,17.9z"/>
<path class="st0" d="M147.2,29.8c1.2-1.3,1.1-3.3-0.2-4.5c-6.3-5.7-14.6-9.2-23.8-9.2c-9.1,0-17.5,3.5-23.8,9.2
	c-1.3,1.2-1.4,3.2-0.2,4.5c1.2,1.3,3.2,1.4,4.5,0.2c5.1-4.7,12-7.5,19.4-7.5c7.5,0,14.3,2.8,19.4,7.5C144,31.2,146,31.1,147.2,29.8z
	"/>
</svg>
