<?xml version="1.0" encoding="utf-8"?>
<!-- Generator: Adobe Illustrator 26.0.0, SVG Export Plug-In . SVG Version: 6.00 Build 0)  -->
<svg version="1.1" id="Слой_1" xmlns="http://www.w3.org/2000/svg" xmlns:xlink="http://www.w3.org/1999/xlink" x="0px" y="0px"
	 viewBox="0 0 300 300" style="enable-background:new 0 0 300 300;" xml:space="preserve">
<style type="text/css">
	.st0{fill:#9D9D9C;stroke:#1D1D1B;stroke-width:4;stroke-miterlimit:10;}
	.st1{fill:#D0D0D0;stroke:#1D1D1B;stroke-width:4;stroke-miterlimit:10;}
	.st2{fill:#FFFFFF;stroke:#1D1D1B;stroke-width:4;stroke-miterlimit:10;}
</style>
<rect x="15.5" y="67.2" class="st0" width="37.8" height="211.1"/>
<rect x="52.3" y="56.5" class="st1" width="55.1" height="221.9"/>
<rect x="7.8" y="255.7" class="st0" width="44.5" height="27.8"/>
<rect x="50.3" y="255.7" class="st1" width="52.5" height="27.8"/>
<rect x="247.8" y="67.2" transform="matrix(-1 -4.488866e-11 4.488866e-11 -1 533.3379 345.5098)" class="st0" width="37.8" height="211.1"/>
<rect x="193.6" y="56.5" transform="matrix(-1 -4.489310e-11 4.489310e-11 -1 442.3599 334.7864)" class="st1" width="55.1" height="221.9"/>
<polygon class="st2" points="179.9,45.2 121.1,45.2 106.2,45.2 106.2,278.3 121.1,278.3 179.9,278.3 194.9,278.3 194.9,45.2 "/>
<rect x="248.7" y="255.7" transform="matrix(-1 -4.487223e-11 4.487223e-11 -1 541.9343 539.1342)" class="st0" width="44.5" height="27.8"/>
<rect x="198.2" y="255.7" transform="matrix(-1 -4.490376e-11 4.490376e-11 -1 448.9459 539.1342)" class="st1" width="52.5" height="27.8"/>
<polygon class="st2" points="115.5,255.7 115.5,255.7 100.5,255.7 100.5,283.5 115.5,283.5 185.5,283.5 200.5,283.5 200.5,255.7 "/>
</svg>
