<?xml version="1.0" encoding="utf-8"?>
<!-- Generator: Adobe Illustrator 26.0.0, SVG Export Plug-In . SVG Version: 6.00 Build 0)  -->
<svg version="1.1" id="Слой_1" xmlns="http://www.w3.org/2000/svg" xmlns:xlink="http://www.w3.org/1999/xlink" x="0px" y="0px"
	 viewBox="0 0 300 300" style="enable-background:new 0 0 300 300;" xml:space="preserve">
<style type="text/css">
	.st0{fill:#B3B2B3;stroke:#000105;stroke-width:4;stroke-miterlimit:10;}
	.st1{fill:#000105;}
</style>
<path class="st0" d="M284.2,280.7H16.1c-7.6,0-13.9-6.3-13.9-13.9v-48.5c0-7.6,6.3-13.9,13.9-13.9h268.1c7.6,0,13.9,6.3,13.9,13.9
	v48.5C298.1,274.4,291.8,280.7,284.2,280.7z"/>
<rect x="212.9" y="225" class="st1" width="49.1" height="35.2"/>
<circle class="st1" cx="43.4" cy="252.8" r="5.6"/>
<circle class="st1" cx="61.9" cy="252.8" r="5.6"/>
<path class="st1" d="M277.5,287.2h-20.4c-1.8,0-3.3-1.5-3.3-3.3l0,0c0-1.8,1.5-3.3,3.3-3.3h20.4c1.8,0,3.3,1.5,3.3,3.3l0,0
	C280.7,285.8,279.2,287.2,277.5,287.2z"/>
<path class="st1" d="M22.8,287.2h20.4c1.8,0,3.3-1.5,3.3-3.3l0,0c0-1.8-1.5-3.3-3.3-3.3H22.8c-1.8,0-3.3,1.5-3.3,3.3l0,0
	C19.6,285.8,21.1,287.2,22.8,287.2z"/>
</svg>
