<?xml version="1.0" encoding="utf-8"?>
<!-- Generator: Adobe Illustrator 26.0.0, SVG Export Plug-In . SVG Version: 6.00 Build 0)  -->
<svg version="1.1" id="Слой_1" xmlns="http://www.w3.org/2000/svg" xmlns:xlink="http://www.w3.org/1999/xlink" x="0px" y="0px"
	 viewBox="0 0 300 300" style="enable-background:new 0 0 300 300;" xml:space="preserve">
<style type="text/css">
	.st0{fill:#CDCCCC;stroke:#1D1D1B;stroke-width:4;stroke-miterlimit:10;}
	.st1{fill:#B3B2B3;stroke:#000105;stroke-width:4;stroke-miterlimit:10;}
	.st2{fill:#000105;}
	.st3{fill:#817F80;}
</style>
<rect x="70.6" y="42.6" class="st0" width="175.5" height="199.3"/>
<rect x="63.8" y="37" class="st0" width="175.5" height="199.3"/>
<rect x="63.3" y="37" class="st0" width="175.5" height="199.3"/>
<rect x="56.2" y="31.3" class="st0" width="175.5" height="199.3"/>
<path class="st1" d="M241.7,281.7H59.1c-5.2,0-9.5-4.3-9.5-9.5v-33c0-5.2,4.3-9.5,9.5-9.5h182.5c5.2,0,9.5,4.3,9.5,9.5v33
	C251.1,277.4,246.9,281.7,241.7,281.7z"/>
<rect x="193.1" y="243.7" class="st2" width="33.4" height="24"/>
<circle class="st2" cx="77.8" cy="262.7" r="3.9"/>
<circle class="st2" cx="90.3" cy="262.7" r="3.9"/>
<path class="st2" d="M237.1,286.1h-13.9c-1.2,0-2.2-1-2.2-2.2l0,0c0-1.2,1-2.2,2.2-2.2h13.9c1.2,0,2.2,1,2.2,2.2l0,0
	C239.3,285.1,238.3,286.1,237.1,286.1z"/>
<path class="st2" d="M63.7,286.1h13.9c1.2,0,2.2-1,2.2-2.2l0,0c0-1.2-1-2.2-2.2-2.2H63.7c-1.2,0-2.2,1-2.2,2.2l0,0
	C61.5,285.1,62.5,286.1,63.7,286.1z"/>
<g>
	<g>
		<polygon class="st3" points="69.7,41.1 64.9,45.9 64.9,57.7 79.2,57.7 79.2,41.1 		"/>
		<polygon class="st3" points="90.2,41.1 85.4,45.9 85.4,57.7 99.7,57.7 99.7,41.1 		"/>
		<polygon class="st3" points="110.6,41.1 105.8,45.9 105.8,57.7 120.1,57.7 120.1,41.1 		"/>
		<polygon class="st3" points="131.1,41.1 126.3,45.9 126.3,57.7 140.6,57.7 140.6,41.1 		"/>
		<polygon class="st3" points="151.6,41.1 146.7,45.9 146.7,57.7 161,57.7 161,41.1 		"/>
		<polygon class="st3" points="172,41.1 167.2,45.9 167.2,57.7 181.5,57.7 181.5,41.1 		"/>
		<polygon class="st3" points="192.5,41.1 187.7,45.9 187.7,57.7 202,57.7 202,41.1 		"/>
		<polygon class="st3" points="213,41.1 208.1,45.9 208.1,57.7 222.4,57.7 222.4,41.1 		"/>
	</g>
	<g>
		<polygon class="st3" points="69.7,63.8 64.9,68.6 64.9,80.4 79.2,80.4 79.2,63.8 		"/>
		<polygon class="st3" points="90.2,63.8 85.4,68.6 85.4,80.4 99.7,80.4 99.7,63.8 		"/>
		<polygon class="st3" points="110.6,63.8 105.8,68.6 105.8,80.4 120.1,80.4 120.1,63.8 		"/>
		<polygon class="st3" points="131.1,63.8 126.3,68.6 126.3,80.4 140.6,80.4 140.6,63.8 		"/>
		<polygon class="st3" points="151.6,63.8 146.7,68.6 146.7,80.4 161,80.4 161,63.8 		"/>
		<polygon class="st3" points="172,63.8 167.2,68.6 167.2,80.4 181.5,80.4 181.5,63.8 		"/>
		<polygon class="st3" points="192.5,63.8 187.7,68.6 187.7,80.4 202,80.4 202,63.8 		"/>
		<polygon class="st3" points="213,63.8 208.1,68.6 208.1,80.4 222.4,80.4 222.4,63.8 		"/>
	</g>
	<g>
		<polygon class="st3" points="69.7,86.4 64.9,91.3 64.9,103 79.2,103 79.2,86.4 		"/>
		<polygon class="st3" points="90.2,86.4 85.4,91.3 85.4,103 99.7,103 99.7,86.4 		"/>
		<polygon class="st3" points="110.6,86.4 105.8,91.3 105.8,103 120.1,103 120.1,86.4 		"/>
		<polygon class="st3" points="131.1,86.4 126.3,91.3 126.3,103 140.6,103 140.6,86.4 		"/>
		<polygon class="st3" points="151.6,86.4 146.7,91.3 146.7,103 161,103 161,86.4 		"/>
		<polygon class="st3" points="172,86.4 167.2,91.3 167.2,103 181.5,103 181.5,86.4 		"/>
		<polygon class="st3" points="192.5,86.4 187.7,91.3 187.7,103 202,103 202,86.4 		"/>
		<polygon class="st3" points="213,86.4 208.1,91.3 208.1,103 222.4,103 222.4,86.4 		"/>
	</g>
	<g>
		<polygon class="st3" points="69.7,109.1 64.9,113.9 64.9,125.7 79.2,125.7 79.2,109.1 		"/>
		<polygon class="st3" points="90.2,109.1 85.4,113.9 85.4,125.7 99.7,125.7 99.7,109.1 		"/>
		<polygon class="st3" points="110.6,109.1 105.8,113.9 105.8,125.7 120.1,125.7 120.1,109.1 		"/>
		<polygon class="st3" points="131.1,109.1 126.3,113.9 126.3,125.7 140.6,125.7 140.6,109.1 		"/>
		<polygon class="st3" points="151.6,109.1 146.7,114 146.7,125.7 161,125.7 161,109.1 		"/>
		<polygon class="st3" points="172,109.1 167.2,113.9 167.2,125.7 181.5,125.7 181.5,109.1 		"/>
		<polygon class="st3" points="192.5,109.1 187.7,113.9 187.7,125.7 202,125.7 202,109.1 		"/>
		<polygon class="st3" points="213,109.1 208.1,114 208.1,125.7 222.4,125.7 222.4,109.1 		"/>
	</g>
	<g>
		<polygon class="st3" points="69.7,131.8 64.9,136.6 64.9,148.4 79.2,148.4 79.2,131.8 		"/>
		<polygon class="st3" points="90.2,131.8 85.4,136.6 85.4,148.4 99.7,148.4 99.7,131.8 		"/>
		<polygon class="st3" points="110.6,131.8 105.8,136.6 105.8,148.4 120.1,148.4 120.1,131.8 		"/>
		<polygon class="st3" points="131.1,131.8 126.3,136.6 126.3,148.4 140.6,148.4 140.6,131.8 		"/>
		<polygon class="st3" points="151.6,131.8 146.7,136.6 146.7,148.4 161,148.4 161,131.8 		"/>
		<polygon class="st3" points="172,131.8 167.2,136.6 167.2,148.4 181.5,148.4 181.5,131.8 		"/>
		<polygon class="st3" points="192.5,131.8 187.7,136.6 187.7,148.4 202,148.4 202,131.8 		"/>
		<polygon class="st3" points="213,131.8 208.1,136.6 208.1,148.4 222.4,148.4 222.4,131.8 		"/>
	</g>
	<g>
		<polygon class="st3" points="69.7,154.5 64.9,159.3 64.9,171.1 79.2,171.1 79.2,154.5 		"/>
		<polygon class="st3" points="90.2,154.5 85.4,159.3 85.4,171.1 99.7,171.1 99.7,154.5 		"/>
		<polygon class="st3" points="110.6,154.5 105.8,159.3 105.8,171.1 120.1,171.1 120.1,154.5 		"/>
		<polygon class="st3" points="131.1,154.5 126.3,159.3 126.3,171.1 140.6,171.1 140.6,154.5 		"/>
		<polygon class="st3" points="151.6,154.5 146.7,159.3 146.7,171.1 161,171.1 161,154.5 		"/>
		<polygon class="st3" points="172,154.5 167.2,159.3 167.2,171.1 181.5,171.1 181.5,154.5 		"/>
		<polygon class="st3" points="192.5,154.5 187.7,159.3 187.7,171.1 202,171.1 202,154.5 		"/>
		<polygon class="st3" points="213,154.5 208.1,159.3 208.1,171.1 222.4,171.1 222.4,154.5 		"/>
	</g>
	<g>
		<polygon class="st3" points="69.7,177.2 64.9,182 64.9,193.8 79.2,193.8 79.2,177.2 		"/>
		<polygon class="st3" points="90.2,177.2 85.4,182 85.4,193.8 99.7,193.8 99.7,177.2 		"/>
		<polygon class="st3" points="110.6,177.2 105.8,182 105.8,193.8 120.1,193.8 120.1,177.2 		"/>
		<polygon class="st3" points="131.1,177.2 126.3,182 126.3,193.8 140.6,193.8 140.6,177.2 		"/>
		<polygon class="st3" points="151.6,177.2 146.7,182 146.7,193.8 161,193.8 161,177.2 		"/>
		<polygon class="st3" points="172,177.2 167.2,182 167.2,193.8 181.5,193.8 181.5,177.2 		"/>
		<polygon class="st3" points="192.5,177.2 187.7,182 187.7,193.8 202,193.8 202,177.2 		"/>
		<polygon class="st3" points="213,177.2 208.1,182 208.1,193.8 222.4,193.8 222.4,177.2 		"/>
	</g>
	<g>
		<polygon class="st3" points="69.7,199.8 64.9,204.6 64.9,216.4 79.2,216.4 79.2,199.8 		"/>
		<polygon class="st3" points="90.2,199.8 85.4,204.6 85.4,216.4 99.7,216.4 99.7,199.8 		"/>
		<polygon class="st3" points="110.6,199.8 105.8,204.6 105.8,216.4 120.1,216.4 120.1,199.8 		"/>
		<polygon class="st3" points="131.1,199.8 126.3,204.6 126.3,216.4 140.6,216.4 140.6,199.8 		"/>
		<polygon class="st3" points="151.6,199.8 146.7,204.7 146.7,216.4 161,216.4 161,199.8 		"/>
		<polygon class="st3" points="172,199.8 167.2,204.6 167.2,216.4 181.5,216.4 181.5,199.8 		"/>
		<polygon class="st3" points="192.5,199.8 187.7,204.6 187.7,216.4 202,216.4 202,199.8 		"/>
		<polygon class="st3" points="213,199.8 208.1,204.7 208.1,216.4 222.4,216.4 222.4,199.8 		"/>
	</g>
</g>
</svg>
