<?xml version="1.0" encoding="utf-8"?>
<!-- Generator: Adobe Illustrator 26.0.0, SVG Export Plug-In . SVG Version: 6.00 Build 0)  -->
<svg version="1.1" id="Слой_1" xmlns="http://www.w3.org/2000/svg" xmlns:xlink="http://www.w3.org/1999/xlink" x="0px" y="0px"
	 viewBox="0 0 300 300" style="enable-background:new 0 0 300 300;" xml:space="preserve">
<style type="text/css">
	.st0{fill:#CDCCCC;stroke:#1D1D1B;stroke-width:4;stroke-miterlimit:10;}
	.st1{fill:#B3B2B3;stroke:#000105;stroke-width:4;stroke-miterlimit:10;}
	.st2{fill:#000105;}
	.st3{fill:#817F80;}
</style>
<rect x="62.7" y="31.3" class="st0" width="175.5" height="199.3"/>
<path class="st1" d="M241.7,281.7H59.1c-5.2,0-9.5-4.3-9.5-9.5v-33c0-5.2,4.3-9.5,9.5-9.5h182.5c5.2,0,9.5,4.3,9.5,9.5v33
	C251.1,277.4,246.9,281.7,241.7,281.7z"/>
<rect x="193.1" y="243.7" class="st2" width="33.4" height="24"/>
<circle class="st2" cx="77.8" cy="262.7" r="3.9"/>
<circle class="st2" cx="90.3" cy="262.7" r="3.9"/>
<path class="st2" d="M237.1,286.1h-13.9c-1.2,0-2.2-1-2.2-2.2l0,0c0-1.2,1-2.2,2.2-2.2h13.9c1.2,0,2.2,1,2.2,2.2l0,0
	C239.3,285.1,238.3,286.1,237.1,286.1z"/>
<path class="st2" d="M63.7,286.1h13.9c1.2,0,2.2-1,2.2-2.2l0,0c0-1.2-1-2.2-2.2-2.2H63.7c-1.2,0-2.2,1-2.2,2.2l0,0
	C61.5,285.1,62.5,286.1,63.7,286.1z"/>
<g>
	<g>
		<polygon class="st3" points="76.2,41.1 71.4,45.9 71.4,57.7 85.7,57.7 85.7,41.1 		"/>
		<polygon class="st3" points="96.7,41.1 91.9,45.9 91.9,57.7 106.2,57.7 106.2,41.1 		"/>
		<polygon class="st3" points="117.1,41.1 112.3,45.9 112.3,57.7 126.6,57.7 126.6,41.1 		"/>
		<polygon class="st3" points="137.6,41.1 132.8,45.9 132.8,57.7 147.1,57.7 147.1,41.1 		"/>
		<polygon class="st3" points="158.1,41.1 153.2,45.9 153.2,57.7 167.5,57.7 167.5,41.1 		"/>
		<polygon class="st3" points="178.5,41.1 173.7,45.9 173.7,57.7 188,57.7 188,41.1 		"/>
		<polygon class="st3" points="199,41.1 194.2,45.9 194.2,57.7 208.5,57.7 208.5,41.1 		"/>
		<polygon class="st3" points="219.5,41.1 214.6,45.9 214.6,57.7 228.9,57.7 228.9,41.1 		"/>
	</g>
	<g>
		<polygon class="st3" points="76.2,63.8 71.4,68.6 71.4,80.4 85.7,80.4 85.7,63.8 		"/>
		<polygon class="st3" points="96.7,63.8 91.9,68.6 91.9,80.4 106.2,80.4 106.2,63.8 		"/>
		<polygon class="st3" points="117.1,63.8 112.3,68.6 112.3,80.4 126.6,80.4 126.6,63.8 		"/>
		<polygon class="st3" points="137.6,63.8 132.8,68.6 132.8,80.4 147.1,80.4 147.1,63.8 		"/>
		<polygon class="st3" points="158.1,63.8 153.2,68.6 153.2,80.4 167.5,80.4 167.5,63.8 		"/>
		<polygon class="st3" points="178.5,63.8 173.7,68.6 173.7,80.4 188,80.4 188,63.8 		"/>
		<polygon class="st3" points="199,63.8 194.2,68.6 194.2,80.4 208.5,80.4 208.5,63.8 		"/>
		<polygon class="st3" points="219.5,63.8 214.6,68.6 214.6,80.4 228.9,80.4 228.9,63.8 		"/>
	</g>
	<g>
		<polygon class="st3" points="76.2,86.4 71.4,91.3 71.4,103 85.7,103 85.7,86.4 		"/>
		<polygon class="st3" points="96.7,86.4 91.9,91.3 91.9,103 106.2,103 106.2,86.4 		"/>
		<polygon class="st3" points="117.1,86.4 112.3,91.3 112.3,103 126.6,103 126.6,86.4 		"/>
		<polygon class="st3" points="137.6,86.4 132.8,91.3 132.8,103 147.1,103 147.1,86.4 		"/>
		<polygon class="st3" points="158.1,86.4 153.2,91.3 153.2,103 167.5,103 167.5,86.4 		"/>
		<polygon class="st3" points="178.5,86.4 173.7,91.3 173.7,103 188,103 188,86.4 		"/>
		<polygon class="st3" points="199,86.4 194.2,91.3 194.2,103 208.5,103 208.5,86.4 		"/>
		<polygon class="st3" points="219.5,86.4 214.6,91.3 214.6,103 228.9,103 228.9,86.4 		"/>
	</g>
	<g>
		<polygon class="st3" points="76.2,109.1 71.4,113.9 71.4,125.7 85.7,125.7 85.7,109.1 		"/>
		<polygon class="st3" points="96.7,109.1 91.9,113.9 91.9,125.7 106.2,125.7 106.2,109.1 		"/>
		<polygon class="st3" points="117.1,109.1 112.3,113.9 112.3,125.7 126.6,125.7 126.6,109.1 		"/>
		<polygon class="st3" points="137.6,109.1 132.8,113.9 132.8,125.7 147.1,125.7 147.1,109.1 		"/>
		<polygon class="st3" points="158.1,109.1 153.2,114 153.2,125.7 167.5,125.7 167.5,109.1 		"/>
		<polygon class="st3" points="178.5,109.1 173.7,113.9 173.7,125.7 188,125.7 188,109.1 		"/>
		<polygon class="st3" points="199,109.1 194.2,113.9 194.2,125.7 208.5,125.7 208.5,109.1 		"/>
		<polygon class="st3" points="219.5,109.1 214.6,114 214.6,125.7 228.9,125.7 228.9,109.1 		"/>
	</g>
	<g>
		<polygon class="st3" points="76.2,131.8 71.4,136.6 71.4,148.4 85.7,148.4 85.7,131.8 		"/>
		<polygon class="st3" points="96.7,131.8 91.9,136.6 91.9,148.4 106.2,148.4 106.2,131.8 		"/>
		<polygon class="st3" points="117.1,131.8 112.3,136.6 112.3,148.4 126.6,148.4 126.6,131.8 		"/>
		<polygon class="st3" points="137.6,131.8 132.8,136.6 132.8,148.4 147.1,148.4 147.1,131.8 		"/>
		<polygon class="st3" points="158.1,131.8 153.2,136.6 153.2,148.4 167.5,148.4 167.5,131.8 		"/>
		<polygon class="st3" points="178.5,131.8 173.7,136.6 173.7,148.4 188,148.4 188,131.8 		"/>
		<polygon class="st3" points="199,131.8 194.2,136.6 194.2,148.4 208.5,148.4 208.5,131.8 		"/>
		<polygon class="st3" points="219.5,131.8 214.6,136.6 214.6,148.4 228.9,148.4 228.9,131.8 		"/>
	</g>
	<g>
		<polygon class="st3" points="76.2,154.5 71.4,159.3 71.4,171.1 85.7,171.1 85.7,154.5 		"/>
		<polygon class="st3" points="96.7,154.5 91.9,159.3 91.9,171.1 106.2,171.1 106.2,154.5 		"/>
		<polygon class="st3" points="117.1,154.5 112.3,159.3 112.3,171.1 126.6,171.1 126.6,154.5 		"/>
		<polygon class="st3" points="137.6,154.5 132.8,159.3 132.8,171.1 147.1,171.1 147.1,154.5 		"/>
		<polygon class="st3" points="158.1,154.5 153.2,159.3 153.2,171.1 167.5,171.1 167.5,154.5 		"/>
		<polygon class="st3" points="178.5,154.5 173.7,159.3 173.7,171.1 188,171.1 188,154.5 		"/>
		<polygon class="st3" points="199,154.5 194.2,159.3 194.2,171.1 208.5,171.1 208.5,154.5 		"/>
		<polygon class="st3" points="219.5,154.5 214.6,159.3 214.6,171.1 228.9,171.1 228.9,154.5 		"/>
	</g>
	<g>
		<polygon class="st3" points="76.2,177.2 71.4,182 71.4,193.8 85.7,193.8 85.7,177.2 		"/>
		<polygon class="st3" points="96.7,177.2 91.9,182 91.9,193.8 106.2,193.8 106.2,177.2 		"/>
		<polygon class="st3" points="117.1,177.2 112.3,182 112.3,193.8 126.6,193.8 126.6,177.2 		"/>
		<polygon class="st3" points="137.6,177.2 132.8,182 132.8,193.8 147.1,193.8 147.1,177.2 		"/>
		<polygon class="st3" points="158.1,177.2 153.2,182 153.2,193.8 167.5,193.8 167.5,177.2 		"/>
		<polygon class="st3" points="178.5,177.2 173.7,182 173.7,193.8 188,193.8 188,177.2 		"/>
		<polygon class="st3" points="199,177.2 194.2,182 194.2,193.8 208.5,193.8 208.5,177.2 		"/>
		<polygon class="st3" points="219.5,177.2 214.6,182 214.6,193.8 228.9,193.8 228.9,177.2 		"/>
	</g>
	<g>
		<polygon class="st3" points="76.2,199.8 71.4,204.6 71.4,216.4 85.7,216.4 85.7,199.8 		"/>
		<polygon class="st3" points="96.7,199.8 91.9,204.6 91.9,216.4 106.2,216.4 106.2,199.8 		"/>
		<polygon class="st3" points="117.1,199.8 112.3,204.6 112.3,216.4 126.6,216.4 126.6,199.8 		"/>
		<polygon class="st3" points="137.6,199.8 132.8,204.6 132.8,216.4 147.1,216.4 147.1,199.8 		"/>
		<polygon class="st3" points="158.1,199.8 153.2,204.7 153.2,216.4 167.5,216.4 167.5,199.8 		"/>
		<polygon class="st3" points="178.5,199.8 173.7,204.6 173.7,216.4 188,216.4 188,199.8 		"/>
		<polygon class="st3" points="199,199.8 194.2,204.6 194.2,216.4 208.5,216.4 208.5,199.8 		"/>
		<polygon class="st3" points="219.5,199.8 214.6,204.7 214.6,216.4 228.9,216.4 228.9,199.8 		"/>
	</g>
</g>
</svg>
