<?xml version="1.0" encoding="utf-8"?>
<!-- Generator: Adobe Illustrator 26.0.0, SVG Export Plug-In . SVG Version: 6.00 Build 0)  -->
<svg version="1.1" id="Слой_1" xmlns="http://www.w3.org/2000/svg" xmlns:xlink="http://www.w3.org/1999/xlink" x="0px" y="0px"
	 viewBox="0 0 300 300" style="enable-background:new 0 0 300 300;" xml:space="preserve">
<style type="text/css">
	.st0{fill:#B3B2B3;stroke:#000000;stroke-width:4;stroke-miterlimit:10;}
	.st1{fill:#201600;}
	.st2{fill:#1D1D1B;}
	.st3{fill:#817F80;}
</style>
<path class="st0" d="M285.3,283.1H14.9c-6.7,0-12.2-5.5-12.2-12.2V114.4c0-6.7,5.5-12.2,12.2-12.2h270.4c6.7,0,12.2,5.5,12.2,12.2
	V271C297.4,277.6,292,283.1,285.3,283.1z"/>
<g id="SPLINE_43_">
	<ellipse transform="matrix(0.1602 -0.9871 0.9871 0.1602 27.4249 418.2341)" class="st1" cx="259.5" cy="193" rx="4.2" ry="4.2"/>
</g>
<g id="SPLINE_44_">
	<circle class="st1" cx="244.3" cy="193" r="4.2"/>
</g>
<g id="SPLINE_45_">
	<path class="st2" d="M269.6,129.1V146c0,0.8-0.7,1.5-1.5,1.5h-32.3c-0.8,0-1.5-0.7-1.5-1.5v-16.9c0-0.8,0.7-1.5,1.5-1.5H268
		C268.9,127.6,269.6,128.2,269.6,129.1z"/>
</g>
<g>
	<rect x="16.7" y="118" class="st3" width="95.6" height="3.6"/>
	<rect x="16.7" y="127.7" class="st3" width="95.6" height="3.6"/>
	<rect x="16.7" y="137.4" class="st3" width="95.6" height="3.6"/>
	<rect x="16.7" y="147.2" class="st3" width="95.6" height="3.6"/>
	<rect x="16.7" y="156.9" class="st3" width="95.6" height="3.6"/>
	<rect x="16.7" y="166.7" class="st3" width="95.6" height="3.6"/>
	<rect x="16.7" y="176.4" class="st3" width="95.6" height="3.6"/>
	<rect x="16.7" y="186.1" class="st3" width="95.6" height="3.6"/>
	<rect x="16.7" y="195.9" class="st3" width="95.6" height="3.6"/>
	<rect x="16.7" y="205.6" class="st3" width="95.6" height="3.6"/>
	<rect x="16.7" y="215.3" class="st3" width="95.6" height="3.6"/>
	<rect x="16.7" y="225.1" class="st3" width="95.6" height="3.6"/>
	<rect x="16.7" y="234.8" class="st3" width="95.6" height="3.6"/>
	<rect x="16.7" y="244.6" class="st3" width="95.6" height="3.6"/>
	<rect x="16.7" y="254.3" class="st3" width="95.6" height="3.6"/>
	<rect x="16.7" y="264" class="st3" width="95.6" height="3.6"/>
	<rect x="117.6" y="118" class="st3" width="95.6" height="3.6"/>
	<rect x="117.6" y="127.7" class="st3" width="95.6" height="3.6"/>
	<rect x="117.6" y="137.4" class="st3" width="95.6" height="3.6"/>
	<rect x="117.6" y="147.2" class="st3" width="95.6" height="3.6"/>
	<rect x="117.6" y="156.9" class="st3" width="95.6" height="3.6"/>
	<rect x="117.6" y="166.7" class="st3" width="95.6" height="3.6"/>
	<rect x="117.6" y="176.4" class="st3" width="95.6" height="3.6"/>
	<rect x="117.6" y="186.1" class="st3" width="95.6" height="3.6"/>
	<rect x="117.6" y="195.9" class="st3" width="95.6" height="3.6"/>
	<rect x="117.6" y="205.6" class="st3" width="95.6" height="3.6"/>
	<rect x="117.6" y="215.3" class="st3" width="95.6" height="3.6"/>
	<rect x="117.6" y="225.1" class="st3" width="95.6" height="3.6"/>
	<rect x="117.6" y="234.8" class="st3" width="95.6" height="3.6"/>
	<rect x="117.6" y="244.6" class="st3" width="95.6" height="3.6"/>
	<rect x="117.6" y="254.3" class="st3" width="95.6" height="3.6"/>
	<rect x="117.6" y="264" class="st3" width="95.6" height="3.6"/>
</g>
</svg>
