<?xml version="1.0" encoding="utf-8"?>
<!-- Generator: Adobe Illustrator 26.0.0, SVG Export Plug-In . SVG Version: 6.00 Build 0)  -->
<svg version="1.1" id="Слой_1" xmlns="http://www.w3.org/2000/svg" xmlns:xlink="http://www.w3.org/1999/xlink" x="0px" y="0px"
	 viewBox="0 0 300 300" style="enable-background:new 0 0 300 300;" xml:space="preserve">
<style type="text/css">
	.st0{fill:#CDCCCC;stroke:#201600;stroke-width:4;stroke-miterlimit:10;}
	.st1{fill:#725846;stroke:#201600;stroke-width:4.2706;stroke-miterlimit:10;}
	.st2{fill:#9A9999;}
	.st3{fill:#646363;stroke:#201600;stroke-width:4;stroke-miterlimit:10;}
	.st4{fill:#201600;}
</style>
<path class="st0" d="M259.1,109.5l-8.2-3.1c-0.3-2.2-0.7-4.4-1.1-6.5l6.6-5.7c-0.3-1.1-0.6-2.2-0.9-3.4l-8.6-1.6
	c-0.7-2.1-1.5-4.2-2.3-6.2l5.5-6.8c-0.5-1.1-0.9-2.1-1.5-3.2l-8.8-0.1c-1-2-2.2-3.9-3.3-5.7l4.3-7.7c-0.7-1-1.3-1.9-2-2.8l-8.6,1.4
	c-1.4-1.7-2.8-3.4-4.2-5.1l2.9-8.3c-0.8-0.8-1.6-1.7-2.5-2.5l-8.3,2.9c-1.6-1.5-3.3-2.9-5.1-4.2l1.4-8.6c-0.9-0.7-1.9-1.4-2.8-2
	l-7.7,4.3c-1.9-1.2-3.8-2.3-5.7-3.3l-0.1-8.8c-1-0.5-2.1-1-3.2-1.5l-6.8,5.5c-2-0.8-4.1-1.6-6.2-2.3l-1.6-8.6
	c-1.1-0.3-2.2-0.6-3.4-0.9l-5.9,6.4c-2.2-0.5-4.3-0.8-6.5-1.1l-3.1-8.2c-1.2-0.1-2.3-0.2-3.5-0.3l-4.5,7.5c-1.1,0-2.2-0.1-3.3-0.1
	s-2.2,0-3.3,0.1l-4.5-7.5c-1.2,0.1-2.3,0.2-3.5,0.3l-3.1,8.2c-2.2,0.3-4.4,0.7-6.5,1.1l-5.7-6.6c-1.1,0.3-2.2,0.6-3.4,0.9l-1.6,8.6
	c-2.1,0.7-4.2,1.5-6.2,2.3l-6.8-5.5c-1.1,0.5-2.1,0.9-3.2,1.5l-0.1,8.8c-2,1-3.9,2.2-5.7,3.3l-7.8-4.3c-1,0.7-1.9,1.3-2.8,2l1.4,8.6
	c-1.7,1.4-3.4,2.8-5.1,4.2l-8.3-2.8c-0.8,0.8-1.7,1.6-2.5,2.5l2.9,8.3c-1.5,1.6-2.9,3.3-4.2,5.1l-8.6-1.4c-0.7,0.9-1.4,1.9-2,2.8
	l4.3,7.7c-1.2,1.9-2.3,3.8-3.3,5.7l-8.8,0.1c-0.5,1-1,2.1-1.5,3.2l5.5,6.8c-0.8,2-1.6,4.1-2.3,6.2l-8.6,1.6
	c-0.3,1.1-0.6,2.2-0.9,3.4l6.6,5.7c-0.5,2.2-0.8,4.3-1.1,6.5l-8.2,3.1c-0.1,1.2-0.2,2.3-0.3,3.5l7.5,4.5c0,1.1-0.1,2.2-0.1,3.3
	c0,1.1,0,2.2,0.1,3.3l-7.5,4.5c0.1,1.2,0.2,2.3,0.3,3.5l8.2,3.1c0.3,2.2,0.7,4.4,1.1,6.5l-6.6,5.7c0.3,1.1,0.6,2.2,0.9,3.4l8.6,1.6
	c0.7,2.1,1.5,4.2,2.3,6.2l-5.5,6.8c0.5,1.1,0.9,2.1,1.5,3.2l8.8,0.1c1,2,2.2,3.9,3.3,5.7l-4.3,7.7c0.7,1,1.3,1.9,2,2.8l8.6-1.4
	c1.4,1.7,2.8,3.4,4.2,5.1l-2.9,8.3c0.8,0.8,1.6,1.7,2.5,2.5l8.3-2.9c1.6,1.5,3.3,2.9,5.1,4.2l-1.4,8.6c0.9,0.7,1.9,1.4,2.8,2
	l7.7-4.3c1.9,1.2,3.8,2.3,5.7,3.3l0.1,8.8c1,0.5,2.1,1,3.2,1.5l6.8-5.5c2,0.8,4.1,1.6,6.2,2.3l1.6,8.6c1.1,0.3,2.2,0.6,3.4,0.9
	l5.7-6.6c2.2,0.5,4.3,0.8,6.5,1.1l3.1,8.2c1.2,0.1,2.3,0.2,3.5,0.3l4.5-7.5c1.1,0,2.2,0.1,3.3,0.1s2.2,0,3.3-0.1l4.5,7.5
	c1.2-0.1,2.3-0.2,3.5-0.3l3.1-8.2c2.2-0.3,4.4-0.7,6.5-1.1l5.7,6.6c1.1-0.3,2.2-0.6,3.4-0.9l1.6-8.6c2.1-0.7,4.2-1.5,6.2-2.3
	l6.8,5.5c1.1-0.5,2.1-0.9,3.2-1.5l0.1-8.8c2-1,3.9-2.2,5.7-3.3l7.7,4.3c1-0.7,1.9-1.3,2.8-2l-1.4-8.6c1.7-1.4,3.4-2.8,5.1-4.2
	l8.3,2.9c0.8-0.8,1.7-1.6,2.5-2.5l-2.9-8.3c1.5-1.6,2.9-3.3,4.2-5.1l8.6,1.4c0.7-0.9,1.4-1.9,2-2.8l-4.3-7.7
	c1.2-1.9,2.3-3.8,3.3-5.7l8.8-0.1c0.5-1,1-2.1,1.5-3.2l-5.5-6.8c0.8-2,1.6-4.1,2.3-6.2l8.6-1.6c0.3-1.1,0.6-2.2,0.9-3.4l-6.6-5.7
	c0.5-2.2,0.8-4.3,1.1-6.5l8.2-3.1c0.1-1.2,0.2-2.3,0.3-3.5l-7.5-4.5c0-1.1,0.1-2.2,0.1-3.3c0-1.1,0-2.2-0.1-3.3l7.5-4.5
	C259.3,111.8,259.2,110.7,259.1,109.5z"/>
<path class="st1" d="M216.2,279.6l-18.5-69.7l-1.4-5.3l-1.4-5.1l2-3.4l-3.4-1.9l-1.4-5.1l2-3.4l-3.4-1.9l-1.3-5.1l2-3.4l-3.4-2
	l-1.3-5l2-3.4l-3.4-2l-1.3-5l2-3.5l-3.4-2l-1.3-5l2-3.5l-3.5-2l-1.3-5l2-3.5l-3.5-2l-3.4-13l0,0c-4.1-14.3-11.2-19.8-22.9-19.8l0,0
	l0,0l0,0l0,0c-11.6,0-18.7,5.5-22.8,19.8l0,0L97.5,232.2l-9.7,36.6L85,279.6c-0.1,0.3-0.1,0.6-0.1,1c0,2,1.6,3.6,3.6,3.6h7.7h109
	h3.4h4.3c2,0,3.6-1.6,3.6-3.6C216.4,280.2,216.3,279.9,216.2,279.6z M134.4,127.3c0-0.9,0.7-1.6,1.6-1.6h29c0.9,0,1.6,0.7,1.6,1.6
	v116.5c0,0.9-0.7,1.6-1.6,1.6h-29c-0.9,0-1.6-0.7-1.6-1.6V127.3z"/>
<path class="st2" d="M216.2,279.6l-18.5-69.7l-1.4-5.3l-1.4-5.1l2-3.4l-3.4-1.9l-1.4-5.1l2-3.4l-3.4-1.9l-1.3-5.1l2-3.4l-3.4-2
	l-1.3-5l2-3.4l-3.4-2l-1.3-5l2-3.5l-3.4-2l-1.3-5l2-3.5l-3.5-2l-1.3-5l2-3.5l-3.5-2l-3.4-13l0,0c-4.1-14.3-11.2-19.8-22.9-19.8l0,0
	l0,0l0,0l0,0c-11.6,0-18.7,5.5-22.8,19.8l0,0L97.5,232.2l-9.7,36.6L85,279.6c-0.1,0.3-0.1,0.6-0.1,1c0,2,1.6,3.6,3.6,3.6h7.7h109
	h3.4h4.3c2,0,3.6-1.6,3.6-3.6C216.4,280.2,216.3,279.9,216.2,279.6z M134.4,127.3c0-0.9,0.7-1.6,1.6-1.6h29c0.9,0,1.6,0.7,1.6,1.6
	v116.5c0,0.9-0.7,1.6-1.6,1.6h-29c-0.9,0-1.6-0.7-1.6-1.6V127.3z"/>
<g>
	<path d="M104.1,107.7c0.2-0.8,0.5-1.6,0.8-2.4c0,0,0,0,0-0.1c0.8-2.4,1.9-4.7,3.1-7l0,0c0.1-0.2,0.2-0.5,0.4-0.7l-3.5-2.4
		c-1.6,2.8-2.9,5.7-3.9,8.8c0,0.1-0.1,0.3-0.1,0.4c-0.2,0.6-0.4,1.1-0.6,1.7l0,0c-0.1,0.3-0.2,0.5-0.3,0.8L104.1,107.7z"/>
	<path d="M98.4,115.3L98.4,115.3c-0.1,0.5-0.1,1-0.1,1.6c0,0.3,0,0.5-0.1,0.8c0,0.6-0.1,1.2-0.1,1.8c0,0.4,0,0.9,0,1.3s0,0.8,0,1.3
		c0,0.6,0,1.2,0.1,1.8c0,0.3,0,0.5,0.1,0.8c0,0.5,0.1,1.1,0.1,1.6l0,0c0,0.3,0,0.6,0.1,0.9l4.1-0.9c-0.1-0.8-0.2-1.5-0.2-2.3
		c0-0.1,0-0.3,0-0.4c0-0.6,0-1.2-0.1-1.7c0-0.3,0-0.7,0-1c0-0.4,0-0.7,0-1c0-0.6,0-1.1,0.1-1.7c0-0.2,0-0.3,0-0.5
		c0.1-0.8,0.1-1.5,0.2-2.3l-4.1-0.9C98.4,114.7,98.4,115,98.4,115.3z"/>
	<path d="M190.5,88.1c-0.3-0.4-0.7-0.8-1-1.2c-0.2-0.2-0.3-0.4-0.5-0.6c-0.4-0.5-0.8-0.9-1.2-1.3c-0.3-0.3-0.6-0.6-0.9-1
		c-0.3-0.3-0.6-0.6-0.9-0.9c-0.5-0.4-0.9-0.9-1.4-1.3c-0.2-0.2-0.4-0.3-0.5-0.5c-0.4-0.4-0.8-0.7-1.2-1.1l0,0
		c-0.2-0.2-0.4-0.4-0.7-0.5l-2.3,3.5c0.5,0.4,1,0.9,1.6,1.3c0.2,0.2,0.4,0.4,0.6,0.5c0.4,0.3,0.7,0.7,1.1,1c0.3,0.3,0.6,0.5,0.8,0.8
		c0.3,0.3,0.5,0.6,0.8,0.8c0.3,0.4,0.7,0.7,1,1.1c0.2,0.2,0.3,0.4,0.5,0.6c0.4,0.5,0.9,1,1.3,1.6l3.5-2.3
		C190.9,88.6,190.7,88.4,190.5,88.1L190.5,88.1z"/>
	<path d="M166.5,71.5c-0.6-0.2-1.2-0.4-1.8-0.6l0,0c-0.3-0.1-0.5-0.2-0.8-0.3l-0.8,4.1c0.8,0.2,1.6,0.5,2.4,0.8h0.1
		c2.4,0.8,4.7,1.9,7,3.1l0,0c0.2,0.1,0.5,0.2,0.7,0.4l2.4-3.5c-2.8-1.6-5.7-2.9-8.8-3.9C166.8,71.6,166.7,71.5,166.5,71.5z"/>
	<path d="M155.6,69.1c-0.5-0.1-1-0.1-1.6-0.1c-0.3,0-0.6,0-0.8-0.1c-0.6,0-1.2-0.1-1.8-0.1c-0.4,0-0.9,0-1.3,0c-0.4,0-0.9,0-1.3,0
		c-0.6,0-1.2,0-1.8,0.1c-0.3,0-0.6,0-0.8,0.1c-0.5,0-1,0.1-1.6,0.1l0,0c-0.3,0-0.6,0-0.9,0.1l0.9,4.1c0.8-0.1,1.5-0.2,2.3-0.2
		c0.2,0,0.3,0,0.5,0c0.6,0,1.2,0,1.7-0.1c0.3,0,0.7,0,1,0s0.7,0,1,0c0.6,0,1.1,0,1.7,0.1c0.2,0,0.3,0,0.5,0c0.8,0.1,1.5,0.1,2.3,0.2
		l0.9-4.1C156.1,69.2,155.9,69.1,155.6,69.1L155.6,69.1z"/>
	<path d="M100.8,137.2c0,0.1,0.1,0.3,0.1,0.4c1.1,3.1,2.4,6,3.9,8.8l3.5-2.4c-0.1-0.2-0.2-0.5-0.4-0.7l0,0c-1.2-2.2-2.2-4.6-3.1-7
		v-0.1c-0.3-0.8-0.5-1.6-0.8-2.4l-4.1,0.8c0.1,0.3,0.2,0.5,0.3,0.8l0,0C100.4,136.1,100.6,136.6,100.8,137.2z"/>
	<path d="M196.1,133.9c-0.2,0.8-0.5,1.6-0.8,2.4v0.1c-0.8,2.4-1.9,4.7-3.1,7l0,0c-0.1,0.2-0.2,0.5-0.4,0.7l3.5,2.4
		c1.6-2.8,2.9-5.7,3.9-8.8c0-0.1,0.1-0.3,0.1-0.4c0.2-0.6,0.4-1.1,0.6-1.7l0,0c0.1-0.3,0.2-0.5,0.3-0.8L196.1,133.9z"/>
	<path d="M201.8,126.3L201.8,126.3c0.1-0.5,0.1-1,0.1-1.6c0-0.3,0-0.5,0.1-0.8c0-0.6,0.1-1.2,0.1-1.8c0-0.4,0-0.8,0-1.3
		c0-0.4,0-0.9,0-1.3c0-0.6,0-1.2-0.1-1.8c0-0.3,0-0.5-0.1-0.8c0-0.5-0.1-1-0.1-1.6l0,0c0-0.3,0-0.6-0.1-0.9l-4.1,0.9
		c0.1,0.8,0.2,1.5,0.2,2.3c0,0.2,0,0.3,0,0.5c0,0.6,0,1.1,0.1,1.7c0,0.3,0,0.7,0,1s0,0.7,0,1c0,0.6,0,1.2-0.1,1.7c0,0.1,0,0.3,0,0.4
		c-0.1,0.8-0.1,1.5-0.2,2.3l4.1,0.9C201.7,126.9,201.7,126.6,201.8,126.3z"/>
	<path d="M199.4,104.4c0-0.1-0.1-0.3-0.1-0.4c-1.1-3.1-2.4-6-3.9-8.8l-3.5,2.4c0.1,0.2,0.2,0.5,0.4,0.7l0,0c1.2,2.2,2.2,4.6,3.1,7
		c0,0,0,0,0,0.1c0.3,0.8,0.5,1.6,0.8,2.4l4.1-0.8c-0.1-0.3-0.2-0.5-0.3-0.8l0,0C199.8,105.5,199.6,104.9,199.4,104.4z"/>
	<path d="M80.9,112L80.9,112c-0.1,0.6-0.1,1.2-0.2,1.8c-0.1,0.8-0.2,1.6-0.2,2.4c-0.1,0.8-0.1,1.5-0.1,2.3s-0.1,1.6-0.1,2.4
		s0,1.6,0.1,2.4c0,0.8,0,1.5,0.1,2.3s0.1,1.6,0.2,2.4c0.1,0.6,0.1,1.2,0.2,1.8l0,0c0,0.4,0.1,0.8,0.1,1.1l4.1-0.8
		c-0.1-0.9-0.2-1.9-0.3-2.8c-0.1-0.7-0.1-1.3-0.2-2c0-0.7-0.1-1.5-0.1-2.2s-0.1-1.4-0.1-2.1s0-1.4,0.1-2.1c0-0.7,0-1.5,0.1-2.2
		c0-0.7,0.1-1.3,0.2-2c0.1-0.9,0.2-1.9,0.3-2.8l-4.1-0.8C81,111.2,81,111.6,80.9,112z"/>
	<path d="M83.5,141.4c0.2,0.5,0.3,1,0.5,1.5c0.4,1.3,0.9,2.5,1.4,3.7c0.1,0.2,0.1,0.3,0.2,0.5c1.3,3.2,2.9,6.4,4.6,9.3l3.5-2.3
		c-0.2-0.3-0.3-0.6-0.5-0.9l0,0c-1.4-2.5-2.6-5-3.7-7.6c0-0.1-0.1-0.2-0.1-0.3c-0.5-1.2-0.9-2.3-1.3-3.5c-0.1-0.4-0.3-0.8-0.4-1.2
		c-0.3-1.1-0.7-2.1-0.9-3.2l-4.1,0.8c0.1,0.4,0.2,0.7,0.3,1.1l0,0C83,139.9,83.2,140.6,83.5,141.4z"/>
	<path d="M86.6,104.4c0.3-1.1,0.6-2.1,0.9-3.2c0.1-0.4,0.2-0.8,0.4-1.2c0.4-1.2,0.8-2.4,1.3-3.5c0-0.1,0.1-0.2,0.1-0.3
		c1.1-2.6,2.3-5.2,3.7-7.6l0,0c0.2-0.3,0.3-0.6,0.5-0.9L90,85.4c-1.8,3-3.3,6.1-4.6,9.3c-0.1,0.2-0.1,0.4-0.2,0.6
		c-0.5,1.2-0.9,2.4-1.4,3.7c-0.2,0.5-0.3,1-0.5,1.5c-0.2,0.7-0.5,1.5-0.7,2.2l0,0c-0.1,0.4-0.2,0.7-0.3,1.1L86.6,104.4z"/>
	<path d="M128,54.7c-1.3,0.4-2.5,0.9-3.7,1.4c-0.2,0.1-0.3,0.1-0.5,0.2c-3.3,1.3-6.4,2.9-9.3,4.6l2.3,3.5c0.3-0.2,0.6-0.3,0.9-0.5
		l0,0c2.5-1.4,5-2.6,7.6-3.7c0.1,0,0.2-0.1,0.3-0.1c1.2-0.5,2.3-0.9,3.5-1.3c0.4-0.1,0.8-0.3,1.2-0.4c1-0.3,2.1-0.7,3.2-0.9
		l-0.8-4.1c-0.4,0.1-0.7,0.2-1.1,0.3l0,0c-0.8,0.2-1.5,0.5-2.3,0.7C129,54.4,128.5,54.5,128,54.7z"/>
	<path d="M195.2,67.6c-0.8-0.7-1.6-1.4-2.4-2v0.1c-0.3-0.2-0.6-0.5-0.9-0.7l-2.3,3.5c1,0.8,2,1.6,3,2.4c0.2,0.1,0.4,0.3,0.5,0.4
		c0.7,0.6,1.4,1.3,2.1,1.9c0.4,0.4,0.9,0.8,1.3,1.2c0.4,0.4,0.8,0.8,1.2,1.3c0.7,0.7,1.3,1.4,2,2.1c0.1,0.2,0.3,0.3,0.4,0.5
		c0.8,1,1.6,2,2.4,3L206,79c-0.2-0.3-0.5-0.6-0.7-0.9l0,0c-0.6-0.8-1.3-1.6-2-2.4c-0.2-0.2-0.3-0.4-0.4-0.5
		c-0.7-0.8-1.4-1.6-2.1-2.3c-0.4-0.5-0.9-1-1.4-1.4c-0.4-0.4-0.9-0.9-1.3-1.3c-0.8-0.7-1.6-1.5-2.4-2.2
		C195.5,67.9,195.3,67.8,195.2,67.6z"/>
	<path d="M158.9,51.6c-0.6-0.1-1.2-0.1-1.8-0.2c-0.8-0.1-1.6-0.2-2.4-0.2c-0.8-0.1-1.5-0.1-2.3-0.1S150.8,51,150,51
		c-0.8,0-1.6,0-2.4,0.1c-0.8,0-1.5,0-2.3,0.1s-1.6,0.1-2.4,0.2c-0.6,0.1-1.2,0.1-1.8,0.2l0,0c-0.4,0-0.8,0.1-1.1,0.1l0.8,4.1
		c0.9-0.1,1.9-0.2,2.8-0.3c0.7-0.1,1.3-0.1,2-0.2c0.7,0,1.5-0.1,2.2-0.1s1.4-0.1,2.1-0.1s1.4,0,2.1,0.1c0.7,0,1.5,0,2.2,0.1
		c0.7,0,1.3,0.1,2,0.2c0.9,0.1,1.9,0.2,2.8,0.3l0.8-4.1C159.7,51.7,159.3,51.7,158.9,51.6L158.9,51.6z"/>
	<path d="M215.5,125.1c0,0.7-0.1,1.3-0.2,2c-0.1,0.9-0.2,1.9-0.3,2.8l4.1,0.8c0.1-0.4,0.1-0.8,0.1-1.1l0,0c0.1-0.6,0.1-1.2,0.2-1.8
		c0.1-0.8,0.2-1.6,0.2-2.4c0.1-0.8,0.1-1.5,0.1-2.3s0.1-1.6,0.1-2.4s0-1.6-0.1-2.4c0-0.8,0-1.5-0.1-2.3s-0.1-1.6-0.2-2.4
		c-0.1-0.6-0.1-1.2-0.2-1.8l0,0c0-0.4-0.1-0.8-0.1-1.1l-4.1,0.8c0.1,0.9,0.2,1.9,0.3,2.8c0.1,0.7,0.1,1.3,0.2,2
		c0,0.7,0.1,1.5,0.1,2.2s0.1,1.4,0.1,2.1s0,1.4-0.1,2.1C215.6,123.6,215.6,124.4,215.5,125.1z"/>
	<path d="M216.7,100.3c-0.2-0.5-0.3-1-0.5-1.5c-0.4-1.2-0.9-2.5-1.4-3.7c-0.1-0.2-0.1-0.4-0.2-0.6c-1.3-3.2-2.8-6.4-4.6-9.3
		l-3.5,2.3c0.2,0.3,0.3,0.6,0.5,0.9l0,0c1.4,2.5,2.6,5,3.7,7.6c0,0.1,0.1,0.2,0.1,0.3c0.5,1.2,0.9,2.3,1.3,3.5
		c0.1,0.4,0.3,0.8,0.4,1.2c0.3,1.1,0.7,2.1,0.9,3.2l4.1-0.8c-0.1-0.4-0.2-0.7-0.3-1.1l0,0C217.2,101.7,216.9,101,216.7,100.3z"/>
	<path d="M67.4,132c-0.1-0.9-0.2-1.7-0.3-2.6c0-0.2,0-0.3,0-0.5c-0.1-0.8-0.1-1.6-0.2-2.4c0-0.3,0-0.5,0-0.8c0-0.7-0.1-1.4-0.1-2.1
		c0-0.4,0-0.8,0-1.2c0-0.5,0-1.1,0-1.6c0-0.6,0-1.1,0-1.7c0-0.4,0-0.8,0-1.2c0-0.7,0.1-1.4,0.1-2.1c0-0.3,0-0.5,0-0.8
		c0.1-0.8,0.1-1.6,0.2-2.4c0-0.2,0-0.3,0-0.5c0.1-0.9,0.2-1.8,0.3-2.6c0.1-0.5,0.1-1,0.2-1.5l-4.2-0.9c-0.1,0.5-0.1,1-0.2,1.4l0,0
		c0,0.3-0.1,0.5-0.1,0.8c-0.1,0.6-0.2,1.2-0.2,1.8c-0.1,0.5-0.1,1-0.1,1.4c-0.1,0.6-0.1,1.2-0.2,1.8c0,0.5-0.1,1-0.1,1.5
		c0,0.6-0.1,1.1-0.1,1.7c0,0.5,0,1,0,1.6c0,0.5,0,1.1,0,1.6s0,1.1,0,1.6s0,1.1,0,1.6c0,0.6,0.1,1.1,0.1,1.7c0,0.5,0.1,1,0.1,1.5
		c0,0.6,0.1,1.2,0.1,1.7s0.1,1,0.1,1.4c0.1,0.6,0.1,1.2,0.2,1.8c0,0.3,0.1,0.5,0.1,0.8l0,0c0.1,0.5,0.1,0.9,0.2,1.4l4.2-0.9
		C67.5,133,67.5,132.5,67.4,132z"/>
	<path d="M69,101c1.9-7.9,5-15.4,9.1-22.4l0,0c0.2-0.4,0.5-0.8,0.7-1.2l-3.6-2.3c-4.4,7.2-7.9,15.2-10.1,23.8l0,0
		c-0.1,0.5-0.3,0.9-0.4,1.4L69,101z"/>
	<path d="M107.9,48.8L107.9,48.8c7-4,14.5-7.1,22.4-9.1l-0.8-4.2c-0.5,0.1-0.9,0.2-1.4,0.4l0,0c-8.6,2.2-16.5,5.7-23.8,10.1l2.4,3.5
		C107.1,49.2,107.5,49,107.9,48.8z"/>
	<path d="M82.8,71.5c1.8-2.4,3.6-4.7,5.6-6.9c0.1-0.1,0.1-0.2,0.2-0.2c0.5-0.6,1-1.1,1.6-1.7c0.3-0.3,0.6-0.6,0.9-0.9
		c0.3-0.3,0.6-0.6,0.9-0.9c0.5-0.5,1.1-1,1.6-1.5c0.1-0.1,0.2-0.2,0.3-0.2c2.2-2,4.5-3.9,6.9-5.6L98.5,50c-0.4,0.3-0.8,0.6-1.1,0.9
		l0,0c-1.3,1-2.6,2-3.8,3.1l-0.1,0.1c-0.7,0.6-1.4,1.2-2.1,1.8c-0.2,0.2-0.4,0.4-0.6,0.5c-0.5,0.5-1,1-1.5,1.5c-0.3,0.3-0.7,0.7-1,1
		s-0.7,0.7-1,1.1c-0.5,0.5-1,1-1.4,1.5c-0.2,0.2-0.4,0.4-0.6,0.6c-0.6,0.7-1.2,1.4-1.8,2l-0.1,0.1c-1.1,1.3-2.1,2.5-3.1,3.8l0,0
		c-0.3,0.4-0.6,0.8-0.9,1.1L82.8,71.5z"/>
	<path d="M220.1,68c-1-1.3-2-2.6-3.1-3.8l-0.1-0.1c-0.6-0.7-1.2-1.4-1.8-2c-0.2-0.2-0.4-0.4-0.6-0.6c-0.5-0.5-0.9-1-1.4-1.5
		c-0.3-0.4-0.7-0.7-1-1.1c-0.3-0.3-0.7-0.7-1-1c-0.5-0.5-1-1-1.5-1.5c-0.2-0.2-0.4-0.4-0.6-0.5c-0.7-0.6-1.4-1.2-2.1-1.8l-0.1-0.1
		c-1.3-1.1-2.5-2.1-3.8-3.1l0,0c-0.4-0.3-0.8-0.6-1.1-0.9l-2.3,3.6c2.4,1.7,4.7,3.6,6.9,5.6c0.1,0.1,0.2,0.2,0.3,0.2
		c0.5,0.5,1.1,1,1.6,1.5c0.3,0.3,0.6,0.6,0.9,0.9c0.3,0.3,0.6,0.6,0.9,0.9c0.5,0.5,1.1,1.1,1.6,1.7c0.1,0.1,0.1,0.2,0.2,0.2
		c2,2.2,3.9,4.5,5.6,6.9l3.6-2.3C220.7,68.8,220.4,68.4,220.1,68L220.1,68z"/>
	<path d="M192.2,48.8c0.4,0.2,0.8,0.5,1.2,0.7l2.4-3.5c-7.2-4.4-15.2-7.9-23.8-10.1l0,0c-0.5-0.1-0.9-0.3-1.4-0.4l-0.8,4.2
		C177.8,41.7,185.3,44.7,192.2,48.8L192.2,48.8z"/>
	<path d="M231.2,140.6c-1.9,7.9-5,15.4-9.1,22.4l0,0c-0.2,0.4-0.5,0.8-0.7,1.2l3.5,2.4c4.4-7.2,7.9-15.2,10.1-23.8l0,0
		c0.1-0.5,0.3-0.9,0.4-1.4L231.2,140.6z"/>
	<path d="M237.8,119.2c0-0.5,0-1,0-1.6s-0.1-1.1-0.1-1.7c0-0.5-0.1-1-0.1-1.5c0-0.6-0.1-1.2-0.2-1.8c0-0.5-0.1-1-0.1-1.4
		c-0.1-0.6-0.1-1.2-0.2-1.8c0-0.3-0.1-0.5-0.1-0.8l0,0c-0.1-0.5-0.1-0.9-0.2-1.4l-4.2,0.9c0.1,0.5,0.1,1,0.2,1.5
		c0.1,0.9,0.2,1.7,0.3,2.6c0,0.2,0,0.3,0,0.5c0.1,0.8,0.1,1.6,0.2,2.4c0,0.3,0,0.5,0,0.8c0,0.7,0.1,1.4,0.1,2.1c0,0.4,0,0.8,0,1.2
		c0,0.6,0,1.1,0,1.7s0,1.1,0,1.7c0,0.4,0,0.8,0,1.2c0,0.7-0.1,1.4-0.1,2.1c0,0.3,0,0.5,0,0.8c-0.1,0.8-0.1,1.6-0.2,2.4
		c0,0.2,0,0.3,0,0.5c-0.1,0.9-0.2,1.7-0.3,2.6c-0.1,0.5-0.1,1-0.2,1.5l4.2,0.9c0.1-0.5,0.1-1,0.2-1.4l0,0c0-0.3,0.1-0.5,0.1-0.8
		c0.1-0.6,0.2-1.2,0.2-1.8c0.1-0.5,0.1-1,0.1-1.4c0.1-0.6,0.1-1.2,0.1-1.7c0-0.5,0.1-1,0.1-1.5c0-0.6,0.1-1.1,0.1-1.7
		c0-0.5,0-1,0-1.6c0-0.5,0-1.1,0-1.6C237.8,120.3,237.8,119.7,237.8,119.2z"/>
	<path d="M117.4,80.4L117.4,80.4c-0.4,0.3-0.8,0.7-1.3,1c-0.2,0.2-0.4,0.3-0.5,0.5c-0.5,0.4-0.9,0.8-1.4,1.3
		c-0.3,0.3-0.6,0.6-0.9,0.9s-0.6,0.6-0.9,1c-0.4,0.4-0.8,0.9-1.2,1.3c-0.2,0.2-0.3,0.4-0.5,0.6c-0.3,0.4-0.7,0.8-1,1.2l0,0
		c-0.2,0.2-0.4,0.4-0.5,0.7l3.5,2.3c0.4-0.5,0.9-1,1.3-1.6c0.2-0.2,0.3-0.4,0.5-0.6c0.3-0.4,0.7-0.7,1-1.1c0.3-0.3,0.5-0.6,0.8-0.8
		c0.3-0.3,0.6-0.5,0.8-0.8c0.4-0.3,0.7-0.7,1.1-1c0.2-0.2,0.4-0.4,0.6-0.5c0.5-0.4,1-0.9,1.6-1.3l-2.3-3.5
		C117.9,80,117.7,80.2,117.4,80.4z"/>
	<path d="M135.4,71L135.4,71c-0.6,0.1-1.2,0.4-1.8,0.5c-0.1,0-0.2,0.1-0.3,0.1c-3.1,1.1-6,2.4-8.8,3.9l2.4,3.5
		c0.2-0.1,0.5-0.2,0.7-0.4l0,0c2.2-1.2,4.6-2.2,7-3.1h0.1c0.8-0.3,1.6-0.5,2.4-0.8l-0.8-4.1C135.9,70.8,135.7,70.9,135.4,71z"/>
	<path d="M210,156.4c1.8-3,3.3-6.1,4.6-9.3c0.1-0.2,0.1-0.3,0.2-0.5c0.5-1.2,0.9-2.4,1.4-3.7c0.2-0.5,0.3-1,0.5-1.5
		c0.2-0.7,0.5-1.5,0.7-2.2l0,0c0.1-0.4,0.2-0.7,0.3-1.1l-4.1-0.8c-0.3,1.1-0.6,2.1-0.9,3.2c-0.1,0.4-0.2,0.8-0.4,1.2
		c-0.4,1.2-0.8,2.4-1.3,3.5c0,0.1-0.1,0.2-0.1,0.3c-1.1,2.6-2.3,5.2-3.7,7.6l0,0c-0.2,0.3-0.3,0.6-0.5,0.9L210,156.4z"/>
	<path d="M170.9,58.6c1.2,0.4,2.3,0.8,3.5,1.3c0.1,0,0.2,0.1,0.3,0.1c2.6,1.1,5.2,2.3,7.6,3.7l0,0c0.3,0.2,0.6,0.3,0.9,0.5l2.3-3.5
		c-3-1.8-6.1-3.3-9.3-4.6c-0.2-0.1-0.3-0.1-0.5-0.2c-1.2-0.5-2.5-1-3.7-1.4c-0.5-0.2-1-0.3-1.5-0.5c-0.8-0.2-1.5-0.5-2.3-0.7l0,0
		c-0.4-0.1-0.7-0.2-1.1-0.3l-0.8,4.1c1.1,0.3,2.1,0.6,3.2,0.9C170.1,58.4,170.5,58.5,170.9,58.6z"/>
	<path d="M97.3,75.2c-0.2,0.2-0.3,0.4-0.4,0.5c-0.7,0.8-1.3,1.5-2,2.3l0,0c-0.2,0.3-0.5,0.6-0.7,0.9l3.5,2.3c0.8-1,1.6-2,2.4-3
		c0.1-0.2,0.3-0.3,0.4-0.5c0.6-0.7,1.3-1.4,2-2.1c0.4-0.4,0.8-0.9,1.2-1.3c0.4-0.4,0.9-0.8,1.3-1.2c0.7-0.7,1.4-1.3,2.1-1.9
		c0.2-0.1,0.3-0.3,0.5-0.4c1-0.8,2-1.6,3-2.4l-2.3-3.5c-0.3,0.2-0.6,0.5-0.9,0.7v-0.1c-0.8,0.6-1.6,1.3-2.4,2
		c-0.2,0.1-0.3,0.3-0.5,0.4c-0.8,0.7-1.6,1.4-2.4,2.2c-0.4,0.4-0.9,0.8-1.3,1.3c-0.5,0.5-0.9,0.9-1.4,1.4
		C98.7,73.7,98,74.4,97.3,75.2z"/>
	<path d="M222.1,78.7c4.1,6.9,7.1,14.5,9.1,22.4l4.2-0.8c-0.1-0.5-0.2-0.9-0.4-1.4l0,0c-2.2-8.6-5.7-16.5-10.1-23.8l-3.5,2.4
		C221.6,77.8,221.9,78.2,222.1,78.7L222.1,78.7z"/>
	<path d="M78.1,162.9C74,156,71,148.4,69,140.5l-4.2,0.8c0.1,0.5,0.2,0.9,0.4,1.4l0,0c2.2,8.6,5.7,16.5,10.1,23.8l3.5-2.4
		C78.5,163.7,78.3,163.4,78.1,162.9L78.1,162.9z"/>
	<path d="M162.3,33.9L162.3,33.9c-0.3,0-0.5-0.1-0.8-0.1c-0.6-0.1-1.2-0.2-1.8-0.2c-0.5-0.1-1-0.1-1.4-0.1c-0.6-0.1-1.2-0.1-1.7-0.1
		s-1-0.1-1.5-0.1c-0.6,0-1.1-0.1-1.7-0.1c-0.5,0-1.1,0-1.6,0s-1.1,0-1.6,0s-1.1,0-1.6,0s-1.1,0-1.6,0c-0.6,0-1.1,0.1-1.7,0.1
		c-0.5,0-1,0.1-1.5,0.1c-0.6,0-1.2,0.1-1.7,0.1s-1,0.1-1.4,0.1c-0.6,0.1-1.2,0.1-1.8,0.2c-0.3,0-0.5,0.1-0.8,0.1l0,0
		c-0.5,0.1-0.9,0.1-1.4,0.2l0.9,4.2c0.5-0.1,1-0.1,1.5-0.2c0.9-0.1,1.7-0.2,2.6-0.3c0.2,0,0.3,0,0.5,0c0.8-0.1,1.6-0.1,2.4-0.2
		c0.3,0,0.5,0,0.8,0c0.7,0,1.4-0.1,2.1-0.1c0.4,0,0.8,0,1.2,0c0.6,0,1.1,0,1.7,0c0.6,0,1.1,0,1.7,0c0.4,0,0.8,0,1.2,0
		c0.7,0,1.4,0.1,2.1,0.1c0.3,0,0.5,0,0.8,0c0.8,0.1,1.6,0.1,2.4,0.2c0.2,0,0.3,0,0.5,0c0.9,0.1,1.7,0.2,2.6,0.3
		c0.5,0.1,1,0.1,1.5,0.2l0.9-4.2C163.2,34.1,162.7,34,162.3,33.9z"/>
	<path d="M89.1,183.8c0.5,0.5,1,1,1.5,1.5c0.2,0.2,0.4,0.4,0.6,0.5c0.7,0.6,1.4,1.2,2.1,1.8l0.1,0.1c1.3,1.1,2.5,2.1,3.8,3.1l0,0
		c0.3,0.2,0.6,0.5,0.9,0.7l1.2-4.5c-1.9-1.4-3.7-2.9-5.5-4.5c-0.1-0.1-0.2-0.2-0.3-0.3c-0.5-0.5-1.1-1-1.6-1.5c-0.3-0.3-0.7-0.6-1-1
		c-0.3-0.3-0.6-0.6-0.8-0.9c-0.5-0.6-1.1-1.1-1.6-1.7c-0.1-0.1-0.1-0.1-0.2-0.2c-2-2.2-3.9-4.5-5.7-6.9l-3.6,2.3
		c0.3,0.4,0.6,0.8,0.9,1.1l0,0c1,1.3,2,2.6,3.1,3.8l0.1,0.1c0.6,0.7,1.2,1.4,1.8,2.1c0.2,0.2,0.4,0.4,0.6,0.6c0.5,0.5,1,1,1.4,1.5
		c0.3,0.4,0.7,0.7,1,1C88.4,183.2,88.8,183.5,89.1,183.8z"/>
	<path d="M103.3,172.4l1.2-4.6c-2.2-2.1-4.2-4.3-6.1-6.7l-3.5,2.3C97.4,166.7,100.3,169.7,103.3,172.4z"/>
	<path d="M197.8,171.6c0.4-0.4,0.8-0.8,1.2-1.2c0.2-0.2,0.3-0.4,0.5-0.5c0.7-0.7,1.4-1.4,2.1-2.2c0.6-0.6,1.1-1.3,1.7-1.9
		c0.2-0.3,0.4-0.5,0.7-0.8c0.4-0.5,0.8-1,1.2-1.5l0,0c0.2-0.3,0.5-0.6,0.7-0.9l-3.5-2.3c-0.7,0.9-1.4,1.9-2.2,2.7l-0.1,0.1
		c-0.6,0.8-1.3,1.5-2,2.2c-0.2,0.2-0.5,0.5-0.7,0.7c-0.3,0.3-0.5,0.5-0.8,0.8L197.8,171.6z"/>
	<path d="M221,172.4l-3.6-2.3c-1.8,2.4-3.6,4.7-5.7,6.9c-0.1,0.1-0.1,0.1-0.2,0.2c-0.5,0.6-1.1,1.1-1.6,1.7
		c-0.3,0.3-0.6,0.6-0.8,0.9c-0.3,0.3-0.7,0.7-1,1c-0.5,0.5-1,1-1.6,1.5c-0.1,0.1-0.2,0.2-0.3,0.3c-1.5,1.3-3,2.6-4.5,3.8l1.2,4.5
		c1.3-1,2.6-2,3.8-3.1l0.1-0.1c0.7-0.6,1.4-1.2,2.1-1.8c0.2-0.2,0.4-0.4,0.6-0.5c0.5-0.5,1-1,1.5-1.5c0.3-0.3,0.7-0.7,1-1
		s0.7-0.7,1-1c0.5-0.5,1-1,1.4-1.5c0.2-0.2,0.4-0.4,0.6-0.6c0.6-0.7,1.2-1.4,1.8-2.1l0.1-0.1c1.1-1.3,2.1-2.5,3.1-3.8l0,0
		C220.4,173.2,220.7,172.8,221,172.4z"/>
</g>
<path class="st3" d="M216.2,279.6l-14.9-56l-25.7-25.7v49c0,2.8-2.3,5.1-5.1,5.1H131c-2.9,0-5.5-2.4-5.5-5.1v-49.1l-25.7,25.7
	l-6.6,24.8l-1,3.9L85,279.6c-0.1,0.3-0.1,0.6-0.1,1c0,2,1.6,3.6,3.6,3.6h10.1h104.2h10.1c2,0,3.6-1.6,3.6-3.6
	C216.4,280.2,216.3,279.9,216.2,279.6z"/>
<path class="st4" d="M212.8,286.2H88.4c-3.1,0-5.7-2.6-5.7-5.7c0-0.5,0.1-1,0.2-1.5l42.7-161.2c4.2-14.7,11.9-21.3,24.9-21.3
	c13.1,0,20.7,6.6,25,21.3l0.1,0.3l3.2,11.9l4.6,2.6l-2.6,4.6l0.9,3.3l4.5,2.6l-2.6,4.6l0.9,3.3l4.5,2.6l-2.6,4.5l0.9,3.3l4.5,2.6
	l-2.6,4.5l0.9,3.3l4.5,2.6l-2.6,4.5l0.9,3.4l4.5,2.6l-2.6,4.5l0.9,3.4l4.5,2.6l-2.6,4.5l21,79.3c0.1,0.5,0.2,1,0.2,1.5
	C218.5,283.7,215.9,286.2,212.8,286.2z M129.8,118.9L129.8,118.9L87.1,280.2c0,0.2-0.1,0.3-0.1,0.4c0,0.8,0.6,1.4,1.4,1.4h124.4
	c0.8,0,1.4-0.6,1.4-1.4c0-0.1,0-0.3-0.1-0.4l0,0l-42.8-161.3c-3.7-12.8-9.8-18.1-20.8-18.1C139.6,100.8,133.5,106,129.8,118.9z
	 M165.1,247.5h-29c-2.1,0-3.7-1.7-3.7-3.7V127.3c0-2.1,1.7-3.7,3.7-3.7h29c2.1,0,3.7,1.7,3.7,3.7v116.5
	C168.8,245.8,167.1,247.5,165.1,247.5z M136.6,243.2h28V127.8h-28V243.2z"/>
<path class="st3" d="M167.2,192.7h-33.3c-1.5,0-2.7,1.2-2.7,2.7v26.3v13.4v1.4c0,1.5,1.5,2.7,3,2.7h33c1.5,0,2.7-1.2,2.7-2.7v-41.2
	C169.9,193.9,168.7,192.7,167.2,192.7z"/>
</svg>
