<?xml version="1.0" encoding="utf-8"?>
<!-- Generator: Adobe Illustrator 26.0.0, SVG Export Plug-In . SVG Version: 6.00 Build 0)  -->
<svg version="1.1" id="Слой_1" xmlns="http://www.w3.org/2000/svg" xmlns:xlink="http://www.w3.org/1999/xlink" x="0px" y="0px"
	 viewBox="0 0 300 300" style="enable-background:new 0 0 300 300;" xml:space="preserve">
<style type="text/css">
	.st0{fill:#CDCCCC;}
	.st1{fill:#414040;}
	.st2{fill:#B3B2B3;stroke:#000000;stroke-width:4;stroke-miterlimit:10;}
	.st3{fill:#E6E5E6;}
	.st4{fill:#817F80;}
	.st5{fill:#000105;}
	.st6{fill:#B3B2B3;stroke:#000105;stroke-width:4;stroke-miterlimit:10;}
</style>
<rect x="84.8" y="40.8" class="st0" width="204.4" height="196.9"/>
<rect x="116.3" y="36.6" class="st1" width="78.3" height="33"/>
<path class="st2" d="M290.8,32.4H72.1c-3.8,0-6.8,3.1-6.8,6.8v207.6c0,3.8,3.1,6.8,6.8,6.8h218.6c3.8,0,6.8-3.1,6.8-6.8V39.2
	C297.5,35.5,294.6,32.4,290.8,32.4z M142,45.7h35.6v10.4H142V45.7z M82.6,137h197.9v88.6H82.6V137z"/>
<rect x="146.9" y="83.5" width="26.5" height="38.5"/>
<polygon class="st3" points="169.1,87.1 153.5,87.1 152.5,87.7 155.7,90.1 166.3,90.1 170.4,88.1 "/>
<polygon class="st3" points="150.4,118.4 165.5,118.4 166.3,117.8 163.2,115.6 153.1,115.6 149.2,117.5 "/>
<polygon class="st3" points="165.3,105.2 164.2,114.8 166.7,116.5 166.9,116.5 168.3,103.7 "/>
<polygon class="st3" points="168.4,102.4 169.9,89.5 167,90.9 165.8,100.6 "/>
<polygon class="st3" points="167.2,103 165.2,101.6 154.6,101.6 152,102.8 153.2,103.7 154.3,104.4 164.4,104.4 "/>
<circle cx="208.1" cy="121.5" r="4.6"/>
<circle cx="186.4" cy="121.5" r="4.6"/>
<g>
	<polygon class="st4" points="98.2,145.7 92.8,151.1 92.8,164.3 108.9,164.3 108.9,145.7 	"/>
	<polygon class="st4" points="121.3,145.7 115.8,151.1 115.8,164.3 131.9,164.3 131.9,145.7 	"/>
	<polygon class="st4" points="144.2,145.7 138.7,151.1 138.7,164.3 154.8,164.3 154.8,145.7 	"/>
	<polygon class="st4" points="167.2,145.7 161.8,151.1 161.8,164.3 177.8,164.3 177.8,145.7 	"/>
	<polygon class="st4" points="190.2,145.7 184.7,151.1 184.7,164.3 200.7,164.3 200.7,145.7 	"/>
	<polygon class="st4" points="213.1,145.7 207.7,151.1 207.7,164.3 223.7,164.3 223.7,145.7 	"/>
	<polygon class="st4" points="236.1,145.7 230.7,151.1 230.7,164.3 246.8,164.3 246.8,145.7 	"/>
	<polygon class="st4" points="259.1,145.7 253.6,151.1 253.6,164.3 269.7,164.3 269.7,145.7 	"/>
</g>
<polygon class="st4" points="236.1,171.2 230.7,176.6 230.7,189.8 246.8,189.8 246.8,171.2 "/>
<polygon class="st4" points="259.1,171.2 253.6,176.6 253.6,189.8 269.7,189.8 269.7,171.2 "/>
<polygon class="st4" points="236.1,197.5 230.7,202.9 230.7,216.1 246.8,216.1 246.8,197.5 "/>
<polygon class="st4" points="259.1,197.5 253.6,202.9 253.6,216.1 269.7,216.1 269.7,197.5 "/>
<polygon class="st5" points="102.3,205.4 102.3,197.7 110.1,197.7 "/>
<polygon class="st5" points="124.4,205.4 124.4,197.7 132.1,197.7 "/>
<polygon class="st5" points="146.5,205.4 146.5,197.7 154.2,197.7 "/>
<polygon class="st5" points="168.6,205.4 168.6,197.7 176.3,197.7 "/>
<polygon class="st5" points="190.7,205.4 190.7,197.7 198.4,197.7 "/>
<rect x="14.4" y="189.1" class="st0" width="203.8" height="84.9"/>
<path class="st6" d="M3,161.9V187v89.3c0,0.2,0,0.5,0,0.7c0.4,3.5,3.4,6.4,7.2,6.4l0,0h214.5c3.8,0,6.8-2.8,7.2-6.4
	c0-0.2,0-0.5,0-0.7V187v-25.1c0-3.9-3.2-7.1-7.2-7.1h-87.5l0,0c-1.9,0-3.5,0.9-4.5,2.4l0,0l-3.6,5.4l0,0c-0.9,1.5-2.6,2.5-4.6,2.5
	h-0.1H65.5c-1.9,0-3.5-1.1-4.5-2.5l0,0l-3.6-5.3c-0.9-1.5-2.6-2.5-4.6-2.5l0,0H10.1C6.2,154.9,3,158,3,161.9z M22.1,265.5
	c-1.1,0-1.9-0.8-1.9-1.9v-55.3c0-1.1,0.8-1.9,1.9-1.9h190.7c1.1,0,1.9,0.8,1.9,1.9v55.3c0,1.1-0.8,1.9-1.9,1.9H22.1z"/>
<g>
	<g>
		<polygon class="st4" points="34,213.6 28.6,219 28.6,232.2 44.7,232.2 44.7,213.6 		"/>
		<polygon class="st4" points="57,213.6 51.6,219 51.6,232.2 67.7,232.2 67.7,213.6 		"/>
		<polygon class="st4" points="79.9,213.6 74.5,219 74.5,232.2 90.6,232.2 90.6,213.6 		"/>
		<polygon class="st4" points="103,213.6 97.5,219 97.5,232.2 113.6,232.2 113.6,213.6 		"/>
		<polygon class="st4" points="126,213.6 120.5,219 120.5,232.2 136.5,232.2 136.5,213.6 		"/>
		<polygon class="st4" points="148.9,213.6 143.5,219 143.5,232.2 159.5,232.2 159.5,213.6 		"/>
		<polygon class="st4" points="171.9,213.6 166.5,219 166.5,232.2 182.5,232.2 182.5,213.6 		"/>
		<polygon class="st4" points="194.9,213.6 189.4,219 189.4,232.2 205.4,232.2 205.4,213.6 		"/>
	</g>
	<g>
		<polygon class="st4" points="34,239 28.6,244.4 28.6,257.7 44.7,257.7 44.7,239 		"/>
		<polygon class="st4" points="57,239 51.6,244.4 51.6,257.7 67.7,257.7 67.7,239 		"/>
		<polygon class="st4" points="79.9,239 74.5,244.4 74.5,257.7 90.6,257.7 90.6,239 		"/>
		<polygon class="st4" points="103,239 97.5,244.4 97.5,257.7 113.6,257.7 113.6,239 		"/>
		<polygon class="st4" points="126,239 120.5,244.5 120.5,257.7 136.5,257.7 136.5,239 		"/>
		<polygon class="st4" points="148.9,239 143.5,244.4 143.5,257.7 159.5,257.7 159.5,239 		"/>
		<polygon class="st4" points="171.9,239 166.5,244.4 166.5,257.7 182.5,257.7 182.5,239 		"/>
		<polygon class="st4" points="194.9,239 189.4,244.5 189.4,257.7 205.4,257.7 205.4,239 		"/>
	</g>
</g>
</svg>
