<?xml version="1.0" encoding="utf-8"?>
<!-- Generator: Adobe Illustrator 26.0.0, SVG Export Plug-In . SVG Version: 6.00 Build 0)  -->
<svg version="1.1" id="Слой_1" xmlns="http://www.w3.org/2000/svg" xmlns:xlink="http://www.w3.org/1999/xlink" x="0px" y="0px"
	 viewBox="0 0 300 300" style="enable-background:new 0 0 300 300;" xml:space="preserve">
<style type="text/css">
	.st0{fill:#CDCCCC;}
	.st1{fill:#B3B2B3;stroke:#000105;stroke-width:4;stroke-miterlimit:10;}
	.st2{fill:#817F80;}
</style>
<rect x="47.8" y="168.3" class="st0" width="204.4" height="110.2"/>
<path class="st1" d="M35.8,161.9V187v89.3c0,0.2,0,0.5,0,0.7c0.4,3.5,3.4,6.4,7.2,6.4l0,0h214.5c3.8,0,6.8-2.8,7.2-6.4
	c0-0.2,0-0.5,0-0.7V187v-25.1c0-3.9-3.2-7.1-7.2-7.1H170l0,0c-1.9,0-3.5,0.9-4.5,2.4l0,0l-3.6,5.4l0,0c-0.9,1.5-2.6,2.5-4.6,2.5
	h-0.1H98.3c-1.9,0-3.5-1.1-4.5-2.5l0,0l-3.6-5.3c-0.9-1.5-2.6-2.5-4.6-2.5l0,0H42.9C39.1,154.9,35.8,158,35.8,161.9z M54.9,265.5
	c-1.1,0-1.9-0.8-1.9-1.9v-55.3c0-1.1,0.8-1.9,1.9-1.9h190.7c1.1,0,1.9,0.8,1.9,1.9v55.3c0,1.1-0.8,1.9-1.9,1.9H54.9z"/>
<g>
	<g>
		<polygon class="st2" points="66.8,213.6 61.4,219 61.4,232.2 77.5,232.2 77.5,213.6 		"/>
		<polygon class="st2" points="89.8,213.6 84.4,219 84.4,232.2 100.5,232.2 100.5,213.6 		"/>
		<polygon class="st2" points="112.8,213.6 107.3,219 107.3,232.2 123.4,232.2 123.4,213.6 		"/>
		<polygon class="st2" points="135.8,213.6 130.4,219 130.4,232.2 146.4,232.2 146.4,213.6 		"/>
		<polygon class="st2" points="158.8,213.6 153.3,219 153.3,232.2 169.3,232.2 169.3,213.6 		"/>
		<polygon class="st2" points="181.7,213.6 176.3,219 176.3,232.2 192.3,232.2 192.3,213.6 		"/>
		<polygon class="st2" points="204.7,213.6 199.3,219 199.3,232.2 215.3,232.2 215.3,213.6 		"/>
		<polygon class="st2" points="227.7,213.6 222.2,219 222.2,232.2 238.3,232.2 238.3,213.6 		"/>
	</g>
	<g>
		<polygon class="st2" points="66.8,239 61.4,244.4 61.4,257.7 77.5,257.7 77.5,239 		"/>
		<polygon class="st2" points="89.8,239 84.4,244.4 84.4,257.7 100.5,257.7 100.5,239 		"/>
		<polygon class="st2" points="112.8,239 107.3,244.4 107.3,257.7 123.4,257.7 123.4,239 		"/>
		<polygon class="st2" points="135.8,239 130.4,244.4 130.4,257.7 146.4,257.7 146.4,239 		"/>
		<polygon class="st2" points="158.8,239 153.3,244.5 153.3,257.7 169.3,257.7 169.3,239 		"/>
		<polygon class="st2" points="181.7,239 176.3,244.4 176.3,257.7 192.3,257.7 192.3,239 		"/>
		<polygon class="st2" points="204.7,239 199.3,244.4 199.3,257.7 215.3,257.7 215.3,239 		"/>
		<polygon class="st2" points="227.7,239 222.2,244.5 222.2,257.7 238.3,257.7 238.3,239 		"/>
	</g>
</g>
</svg>
