<?xml version="1.0" encoding="utf-8"?>
<!-- Generator: Adobe Illustrator 26.0.0, SVG Export Plug-In . SVG Version: 6.00 Build 0)  -->
<svg version="1.1" id="Слой_1" xmlns="http://www.w3.org/2000/svg" xmlns:xlink="http://www.w3.org/1999/xlink" x="0px" y="0px"
	 viewBox="0 0 300 300" style="enable-background:new 0 0 300 300;" xml:space="preserve">
<style type="text/css">
	.st0{fill:#CDCCCC;}
	.st1{fill:#414040;}
	.st2{fill:#B3B2B3;stroke:#000000;stroke-width:4;stroke-miterlimit:10;}
	.st3{fill:#E6E5E6;}
	.st4{fill:#817F80;}
</style>
<rect x="53.3" y="70.3" class="st0" width="204.4" height="196.9"/>
<rect x="84.9" y="66.2" class="st1" width="78.3" height="33"/>
<path class="st2" d="M259.4,62H40.7c-3.8,0-6.8,3.1-6.8,6.8v207.6c0,3.8,3.1,6.8,6.8,6.8h218.6c3.8,0,6.8-3.1,6.8-6.8V68.8
	C266.1,65,263.2,62,259.4,62z M110.6,75.3h35.6v10.4h-35.6V75.3z M51.2,166.5h197.9v88.6H51.2V166.5z"/>
<rect x="115.4" y="113" width="26.5" height="38.5"/>
<polygon class="st3" points="137.7,116.7 122,116.7 121.1,117.3 124.3,119.6 134.9,119.6 139,117.6 "/>
<polygon class="st3" points="119,148 134,148 134.9,147.4 131.8,145.1 121.7,145.1 117.8,147 "/>
<polygon class="st3" points="133.9,134.8 132.7,144.3 135.3,146.1 135.4,146.1 136.9,133.3 "/>
<polygon class="st3" points="137,132 138.5,119 135.6,120.4 134.4,130.2 "/>
<polygon class="st3" points="135.8,132.6 133.8,131.1 123.2,131.1 120.6,132.3 121.8,133.3 122.9,134 133,134 "/>
<circle cx="176.7" cy="151" r="4.6"/>
<circle cx="155" cy="151" r="4.6"/>
<g>
	<polygon class="st4" points="66.8,175.3 61.4,180.7 61.4,193.9 77.5,193.9 77.5,175.3 	"/>
	<polygon class="st4" points="89.8,175.3 84.4,180.7 84.4,193.9 100.5,193.9 100.5,175.3 	"/>
	<polygon class="st4" points="112.7,175.3 107.3,180.7 107.3,193.9 123.4,193.9 123.4,175.3 	"/>
	<polygon class="st4" points="135.8,175.3 130.3,180.7 130.3,193.9 146.4,193.9 146.4,175.3 	"/>
	<polygon class="st4" points="158.7,175.3 153.2,180.7 153.2,193.9 169.3,193.9 169.3,175.3 	"/>
	<polygon class="st4" points="181.7,175.3 176.3,180.7 176.3,193.9 192.3,193.9 192.3,175.3 	"/>
	<polygon class="st4" points="204.7,175.3 199.3,180.7 199.3,193.9 215.3,193.9 215.3,175.3 	"/>
	<polygon class="st4" points="227.7,175.3 222.2,180.7 222.2,193.9 238.2,193.9 238.2,175.3 	"/>
</g>
<g>
	<polygon class="st4" points="66.8,200.8 61.4,206.2 61.4,219.4 77.5,219.4 77.5,200.8 	"/>
	<polygon class="st4" points="89.8,200.8 84.4,206.2 84.4,219.4 100.5,219.4 100.5,200.8 	"/>
	<polygon class="st4" points="112.7,200.8 107.3,206.2 107.3,219.4 123.4,219.4 123.4,200.8 	"/>
	<polygon class="st4" points="135.8,200.8 130.3,206.2 130.3,219.4 146.4,219.4 146.4,200.8 	"/>
	<polygon class="st4" points="158.7,200.8 153.2,206.2 153.2,219.4 169.3,219.4 169.3,200.8 	"/>
	<polygon class="st4" points="181.7,200.8 176.3,206.2 176.3,219.4 192.3,219.4 192.3,200.8 	"/>
	<polygon class="st4" points="204.7,200.8 199.3,206.2 199.3,219.4 215.3,219.4 215.3,200.8 	"/>
	<polygon class="st4" points="227.7,200.8 222.2,206.2 222.2,219.4 238.2,219.4 238.2,200.8 	"/>
</g>
<g>
	<polygon class="st4" points="66.8,226.3 61.4,231.7 61.4,244.9 77.5,244.9 77.5,226.3 	"/>
	<polygon class="st4" points="89.8,226.3 84.4,231.7 84.4,244.9 100.5,244.9 100.5,226.3 	"/>
	<polygon class="st4" points="112.7,226.3 107.3,231.7 107.3,244.9 123.4,244.9 123.4,226.3 	"/>
	<polygon class="st4" points="135.8,226.3 130.3,231.7 130.3,244.9 146.4,244.9 146.4,226.3 	"/>
	<polygon class="st4" points="158.7,226.3 153.2,231.7 153.2,244.9 169.3,244.9 169.3,226.3 	"/>
	<polygon class="st4" points="181.7,226.3 176.3,231.7 176.3,244.9 192.3,244.9 192.3,226.3 	"/>
	<polygon class="st4" points="204.7,226.3 199.3,231.7 199.3,244.9 215.3,244.9 215.3,226.3 	"/>
	<polygon class="st4" points="227.7,226.3 222.2,231.7 222.2,244.9 238.2,244.9 238.2,226.3 	"/>
</g>
</svg>
