<?xml version="1.0" encoding="utf-8"?>
<!-- Generator: Adobe Illustrator 26.0.0, SVG Export Plug-In . SVG Version: 6.00 Build 0)  -->
<svg version="1.1" id="Слой_1" xmlns="http://www.w3.org/2000/svg" xmlns:xlink="http://www.w3.org/1999/xlink" x="0px" y="0px"
	 viewBox="0 0 300 300" style="enable-background:new 0 0 300 300;" xml:space="preserve">
<style type="text/css">
	.st0{fill:#CDCCCC;}
	.st1{fill:#414040;}
	.st2{fill:#B3B2B3;stroke:#000000;stroke-width:4;stroke-miterlimit:10;}
	.st3{fill:#817F80;}
</style>
<rect x="53.3" y="70.3" class="st0" width="204.4" height="196.9"/>
<rect x="84.9" y="66.2" class="st1" width="78.3" height="33"/>
<path class="st2" d="M259.4,62H40.7c-3.8,0-6.8,3.1-6.8,6.8v207.6c0,3.8,3.1,6.8,6.8,6.8h218.6c3.8,0,6.8-3.1,6.8-6.8V68.8
	C266.1,65,263.2,62,259.4,62z M110.6,75.3h35.6v10.4h-35.6V75.3z M51.2,129.7h197.9v88.6H51.2V129.7z"/>
<g>
	<polygon class="st3" points="66.8,139 61.4,144.4 61.4,157.6 77.5,157.6 77.5,139 	"/>
	<polygon class="st3" points="89.8,139 84.4,144.4 84.4,157.6 100.5,157.6 100.5,139 	"/>
	<polygon class="st3" points="112.7,139 107.3,144.4 107.3,157.6 123.4,157.6 123.4,139 	"/>
	<polygon class="st3" points="135.8,139 130.3,144.4 130.3,157.6 146.4,157.6 146.4,139 	"/>
	<polygon class="st3" points="158.7,139 153.2,144.4 153.2,157.6 169.3,157.6 169.3,139 	"/>
	<polygon class="st3" points="181.7,139 176.3,144.4 176.3,157.6 192.3,157.6 192.3,139 	"/>
	<polygon class="st3" points="204.7,139 199.3,144.4 199.3,157.6 215.3,157.6 215.3,139 	"/>
	<polygon class="st3" points="227.7,139 222.2,144.4 222.2,157.6 238.2,157.6 238.2,139 	"/>
</g>
<g>
	<polygon class="st3" points="66.8,164.5 61.4,169.9 61.4,183.1 77.5,183.1 77.5,164.5 	"/>
	<polygon class="st3" points="89.8,164.5 84.4,169.9 84.4,183.1 100.5,183.1 100.5,164.5 	"/>
	<polygon class="st3" points="112.7,164.5 107.3,169.9 107.3,183.1 123.4,183.1 123.4,164.5 	"/>
	<polygon class="st3" points="135.8,164.5 130.3,169.9 130.3,183.1 146.4,183.1 146.4,164.5 	"/>
	<polygon class="st3" points="158.7,164.5 153.2,169.9 153.2,183.1 169.3,183.1 169.3,164.5 	"/>
	<polygon class="st3" points="181.7,164.5 176.3,169.9 176.3,183.1 192.3,183.1 192.3,164.5 	"/>
	<polygon class="st3" points="204.7,164.5 199.3,169.9 199.3,183.1 215.3,183.1 215.3,164.5 	"/>
	<polygon class="st3" points="227.7,164.5 222.2,169.9 222.2,183.1 238.2,183.1 238.2,164.5 	"/>
</g>
<g>
	<polygon class="st3" points="66.8,190 61.4,195.4 61.4,208.6 77.5,208.6 77.5,190 	"/>
	<polygon class="st3" points="89.8,190 84.4,195.4 84.4,208.6 100.5,208.6 100.5,190 	"/>
	<polygon class="st3" points="112.7,190 107.3,195.4 107.3,208.6 123.4,208.6 123.4,190 	"/>
	<polygon class="st3" points="135.8,190 130.3,195.4 130.3,208.6 146.4,208.6 146.4,190 	"/>
	<polygon class="st3" points="158.7,190 153.2,195.4 153.2,208.6 169.3,208.6 169.3,190 	"/>
	<polygon class="st3" points="181.7,190 176.3,195.4 176.3,208.6 192.3,208.6 192.3,190 	"/>
	<polygon class="st3" points="204.7,190 199.3,195.4 199.3,208.6 215.3,208.6 215.3,190 	"/>
	<polygon class="st3" points="227.7,190 222.2,195.4 222.2,208.6 238.2,208.6 238.2,190 	"/>
</g>
</svg>
