<?xml version="1.0" encoding="utf-8"?>
<!-- Generator: Adobe Illustrator 26.0.0, SVG Export Plug-In . SVG Version: 6.00 Build 0)  -->
<svg version="1.1" id="Слой_1" xmlns="http://www.w3.org/2000/svg" xmlns:xlink="http://www.w3.org/1999/xlink" x="0px" y="0px"
	 viewBox="0 0 300 300" style="enable-background:new 0 0 300 300;" xml:space="preserve">
<style type="text/css">
	.st0{fill:#BFBFBF;stroke:#000105;stroke-width:4;stroke-miterlimit:10;}
	.st1{fill:#808080;stroke:#000105;stroke-width:4;stroke-miterlimit:10;}
	.st2{fill:#FFFFFF;stroke:#000105;stroke-width:4;stroke-miterlimit:10;}
</style>
<path class="st0" d="M284.5,126.1h-267h-3.6v157.6h3.6l0,0h50.7c0.9,0,1.6-0.8,1.6-1.8v-14.5c0-1-0.7-1.8-1.6-1.8l0,0h-8.3
	c-0.8,0-1.4-0.7-1.5-1.6v-10.6c0-1,0.7-1.8,1.6-1.8h180.6c0.9,0,1.6,0.8,1.6,1.8V264c-0.1,0.9-0.7,1.6-1.5,1.6h-8.3l0,0
	c-0.9,0-1.6,0.8-1.6,1.8v14.5c0,1,0.7,1.8,1.6,1.8h42l0,0h12.2V126.1H284.5z"/>
<rect x="2.8" y="119.3" class="st1" width="294.5" height="6.4"/>
<circle class="st2" cx="150.1" cy="149.2" r="8.5"/>
<circle class="st2" cx="223.2" cy="220" r="7.3"/>
<circle class="st2" cx="77" cy="220" r="7.3"/>
</svg>
